<svg xmlns="http://www.w3.org/2000/svg" xmlns:xlink="http://www.w3.org/1999/xlink" version="1.1" class="marks" width="703" height="386" viewBox="0 0 703 386"><rect width="703" height="386" fill="white"/><g fill="none" stroke-miterlimit="10" transform="translate(98,48)"><g class="mark-group role-frame root" role="graphics-object" aria-roledescription="group mark container"><g transform="translate(0,0)"><path class="background" aria-hidden="true" d="M0.5,0.5h600v300h-600Z" stroke="#ddd"/><g><g class="mark-group role-axis" aria-hidden="true"><g transform="translate(0.5,0.5)"><path class="background" aria-hidden="true" d="M0,0h0v0h0Z" pointer-events="none"/><g><g class="mark-rule role-axis-grid" pointer-events="none"><line transform="translate(0,300)" x2="600" y2="0" stroke="#ddd" stroke-width="1" opacity="1"/><line transform="translate(0,270)" x2="600" y2="0" stroke="#ddd" stroke-width="1" opacity="1"/><line transform="translate(0,240)" x2="600" y2="0" stroke="#ddd" stroke-width="1" opacity="1"/><line transform="translate(0,210)" x2="600" y2="0" stroke="#ddd" stroke-width="1" opacity="1"/><line transform="translate(0,180)" x2="600" y2="0" stroke="#ddd" stroke-width="1" opacity="1"/><line transform="translate(0,150)" x2="600" y2="0" stroke="#ddd" stroke-width="1" opacity="1"/><line transform="translate(0,120)" x2="600" y2="0" stroke="#ddd" stroke-width="1" opacity="1"/><line transform="translate(0,90)" x2="600" y2="0" stroke="#ddd" stroke-width="1" opacity="1"/><line transform="translate(0,60)" x2="600" y2="0" stroke="#ddd" stroke-width="1" opacity="1"/><line transform="translate(0,30)" x2="600" y2="0" stroke="#ddd" stroke-width="1" opacity="1"/><line transform="translate(0,0)" x2="600" y2="0" stroke="#ddd" stroke-width="1" opacity="1"/></g></g><path class="foreground" aria-hidden="true" d="" pointer-events="none" display="none"/></g></g><g class="mark-group role-axis" role="graphics-symbol" aria-roledescription="axis" aria-label="X-axis titled 'DRG' for a discrete scale with 10 values: 470, 871, 291, 292, 392, ending with 872"><g transform="translate(0.5,300.5)"><path class="background" aria-hidden="true" d="M0,0h0v0h0Z" pointer-events="none"/><g><g class="mark-rule role-axis-tick" pointer-events="none"><line transform="translate(30,0)" x2="0" y2="5" stroke="#888" stroke-width="1" opacity="1"/><line transform="translate(90,0)" x2="0" y2="5" stroke="#888" stroke-width="1" opacity="1"/><line transform="translate(150,0)" x2="0" y2="5" stroke="#888" stroke-width="1" opacity="1"/><line transform="translate(210,0)" x2="0" y2="5" stroke="#888" stroke-width="1" opacity="1"/><line transform="translate(270,0)" x2="0" y2="5" stroke="#888" stroke-width="1" opacity="1"/><line transform="translate(330,0)" x2="0" y2="5" stroke="#888" stroke-width="1" opacity="1"/><line transform="translate(390,0)" x2="0" y2="5" stroke="#888" stroke-width="1" opacity="1"/><line transform="translate(450,0)" x2="0" y2="5" stroke="#888" stroke-width="1" opacity="1"/><line transform="translate(510,0)" x2="0" y2="5" stroke="#888" stroke-width="1" opacity="1"/><line transform="translate(570,0)" x2="0" y2="5" stroke="#888" stroke-width="1" opacity="1"/></g><g class="mark-text role-axis-label" pointer-events="none"><text text-anchor="middle" transform="translate(29.5,16)" font-family="sans-serif" font-size="12px" fill="#000" opacity="1">470</text><text text-anchor="middle" transform="translate(89.5,16)" font-family="sans-serif" font-size="12px" fill="#000" opacity="1">871</text><text text-anchor="middle" transform="translate(149.5,16)" font-family="sans-serif" font-size="12px" fill="#000" opacity="1">291</text><text text-anchor="middle" transform="translate(209.5,16)" font-family="sans-serif" font-size="12px" fill="#000" opacity="1">292</text><text text-anchor="middle" transform="translate(269.5,16)" font-family="sans-serif" font-size="12px" fill="#000" opacity="1">392</text><text text-anchor="middle" transform="translate(329.5,16)" font-family="sans-serif" font-size="12px" fill="#000" opacity="1">690</text><text text-anchor="middle" transform="translate(389.5,16)" font-family="sans-serif" font-size="12px" fill="#000" opacity="1">194</text><text text-anchor="middle" transform="translate(449.5,16)" font-family="sans-serif" font-size="12px" fill="#000" opacity="1">683</text><text text-anchor="middle" transform="translate(509.5,16)" font-family="sans-serif" font-size="12px" fill="#000" opacity="1">378</text><text text-anchor="middle" transform="translate(569.5,16)" font-family="sans-serif" font-size="12px" fill="#000" opacity="1">872</text></g><g class="mark-rule role-axis-domain" pointer-events="none"><line transform="translate(0,0)" x2="600" y2="0" stroke="#888" stroke-width="1" opacity="1"/></g><g class="mark-text role-axis-title" pointer-events="none"><text text-anchor="middle" transform="translate(300,31)" font-family="sans-serif" font-size="12px" font-weight="bold" fill="#000" opacity="1">DRG</text></g></g><path class="foreground" aria-hidden="true" d="" pointer-events="none" display="none"/></g></g><g class="mark-group role-axis" role="graphics-symbol" aria-roledescription="axis" aria-label="Y-axis titled 'Discharges (in '000s)' for a linear scale with values from       0 to     500"><g transform="translate(0.5,0.5)"><path class="background" aria-hidden="true" d="M0,0h0v0h0Z" pointer-events="none"/><g><g class="mark-rule role-axis-tick" pointer-events="none"><line transform="translate(0,300)" x2="-5" y2="0" stroke="#888" stroke-width="1" opacity="1"/><line transform="translate(0,270)" x2="-5" y2="0" stroke="#888" stroke-width="1" opacity="1"/><line transform="translate(0,240)" x2="-5" y2="0" stroke="#888" stroke-width="1" opacity="1"/><line transform="translate(0,210)" x2="-5" y2="0" stroke="#888" stroke-width="1" opacity="1"/><line transform="translate(0,180)" x2="-5" y2="0" stroke="#888" stroke-width="1" opacity="1"/><line transform="translate(0,150)" x2="-5" y2="0" stroke="#888" stroke-width="1" opacity="1"/><line transform="translate(0,120)" x2="-5" y2="0" stroke="#888" stroke-width="1" opacity="1"/><line transform="translate(0,90)" x2="-5" y2="0" stroke="#888" stroke-width="1" opacity="1"/><line transform="translate(0,60)" x2="-5" y2="0" stroke="#888" stroke-width="1" opacity="1"/><line transform="translate(0,30)" x2="-5" y2="0" stroke="#888" stroke-width="1" opacity="1"/><line transform="translate(0,0)" x2="-5" y2="0" stroke="#888" stroke-width="1" opacity="1"/></g><g class="mark-text role-axis-label" pointer-events="none"><text text-anchor="end" transform="translate(-7,304)" font-family="sans-serif" font-size="12px" fill="#000" opacity="1">0</text><text text-anchor="end" transform="translate(-7,274)" font-family="sans-serif" font-size="12px" fill="#000" opacity="1">50</text><text text-anchor="end" transform="translate(-7,244)" font-family="sans-serif" font-size="12px" fill="#000" opacity="1">100</text><text text-anchor="end" transform="translate(-7,214)" font-family="sans-serif" font-size="12px" fill="#000" opacity="1">150</text><text text-anchor="end" transform="translate(-7,184)" font-family="sans-serif" font-size="12px" fill="#000" opacity="1">200</text><text text-anchor="end" transform="translate(-7,154)" font-family="sans-serif" font-size="12px" fill="#000" opacity="1">250</text><text text-anchor="end" transform="translate(-7,124)" font-family="sans-serif" font-size="12px" fill="#000" opacity="1">300</text><text text-anchor="end" transform="translate(-7,94.00000000000001)" font-family="sans-serif" font-size="12px" fill="#000" opacity="1">350</text><text text-anchor="end" transform="translate(-7,63.999999999999986)" font-family="sans-serif" font-size="12px" fill="#000" opacity="1">400</text><text text-anchor="end" transform="translate(-7,33.99999999999999)" font-family="sans-serif" font-size="12px" fill="#000" opacity="1">450</text><text text-anchor="end" transform="translate(-7,4)" font-family="sans-serif" font-size="12px" fill="#000" opacity="1">500</text></g><g class="mark-rule role-axis-domain" pointer-events="none"><line transform="translate(0,300)" x2="0" y2="-300" stroke="#888" stroke-width="1" opacity="1"/></g><g class="mark-text role-axis-title" pointer-events="none"><text text-anchor="middle" transform="translate(-32,-13)" font-family="sans-serif" font-size="12px" font-weight="bold" fill="#000" opacity="1">Discharges (in '000s)</text></g></g><path class="foreground" aria-hidden="true" d="" pointer-events="none" display="none"/></g></g><g class="mark-rect role-mark marks" role="graphics-object" aria-roledescription="rect mark container"><path aria-label="DRG: 470; Discharges (in '000s):     458" role="graphics-symbol" aria-roledescription="bar" d="M20,25.080000000000002h20v274.92h-20Z" fill="#4c78a8"/><path aria-label="DRG: 871; Discharges (in '000s):     439" role="graphics-symbol" aria-roledescription="bar" d="M80,36.8664h20v263.1336h-20Z" fill="#4c78a8"/><path aria-label="DRG: 291; Discharges (in '000s):     199" role="graphics-symbol" aria-roledescription="bar" d="M140,180.67380000000003h20v119.32619999999997h-20Z" fill="#4c78a8"/><path aria-label="DRG: 292; Discharges (in '000s):     193" role="graphics-symbol" aria-roledescription="bar" d="M200,184.2702h20v115.72980000000001h-20Z" fill="#4c78a8"/><path aria-label="DRG: 392; Discharges (in '000s):     190" role="graphics-symbol" aria-roledescription="bar" d="M260,185.7906h20v114.20939999999999h-20Z" fill="#4c78a8"/><path aria-label="DRG: 690; Discharges (in '000s):     160" role="graphics-symbol" aria-roledescription="bar" d="M320,204.2076h20v95.79239999999999h-20Z" fill="#4c78a8"/><path aria-label="DRG: 194; Discharges (in '000s):     149" role="graphics-symbol" aria-roledescription="bar" d="M380,210.8292h20v89.17080000000001h-20Z" fill="#4c78a8"/><path aria-label="DRG: 683; Discharges (in '000s):     144" role="graphics-symbol" aria-roledescription="bar" d="M440,213.52679999999998h20v86.47320000000002h-20Z" fill="#4c78a8"/><path aria-label="DRG: 378; Discharges (in '000s):     138" role="graphics-symbol" aria-roledescription="bar" d="M500,216.909h20v83.09100000000001h-20Z" fill="#4c78a8"/><path aria-label="DRG: 872; Discharges (in '000s):     135" role="graphics-symbol" aria-roledescription="bar" d="M560,219.1104h20v80.8896h-20Z" fill="#4c78a8"/></g><g class="mark-group role-title"><g transform="translate(300,-43)"><path class="background" aria-hidden="true" d="M0,0h0v0h0Z" pointer-events="none"/><g><g class="mark-text role-title-text" role="graphics-symbol" aria-roledescription="title" aria-label="Title text '2014 Top DRGs - by Discharges'" pointer-events="none"><text text-anchor="middle" transform="translate(0,13)" font-family="sans-serif" font-size="16px" font-weight="bold" fill="#000" opacity="1">2014 Top DRGs - by Discharges</text></g></g><path class="foreground" aria-hidden="true" d="" pointer-events="none" display="none"/></g></g></g><path class="foreground" aria-hidden="true" d="" display="none"/></g></g></g></svg>