<?xml version="1.0" encoding="utf-8" standalone="no"?>
<!DOCTYPE svg PUBLIC "-//W3C//DTD SVG 1.1//EN"
  "http://www.w3.org/Graphics/SVG/1.1/DTD/svg11.dtd">
<!-- Created with matplotlib (http://matplotlib.org/) -->
<svg height="576pt" version="1.1" viewBox="0 0 792 576" width="792pt" xmlns="http://www.w3.org/2000/svg" xmlns:xlink="http://www.w3.org/1999/xlink">
 <defs>
  <style type="text/css">
*{stroke-linecap:butt;stroke-linejoin:round;}
  </style>
 </defs>
 <g id="figure_1">
  <g id="patch_1">
   <path d="M 0 576 
L 792 576 
L 792 0 
L 0 0 
z
" style="fill:#ffffff;"/>
  </g>
  <g id="axes_1">
   <g id="patch_2">
    <path d="M 99 504 
L 712.8 504 
L 712.8 69.12 
L 99 69.12 
z
" style="fill:#ffffff;"/>
   </g>
   <g id="matplotlib.axis_1">
    <g id="xtick_1">
     <g id="line2d_1">
      <defs>
       <path d="M 0 0 
L 0 3.5 
" id="mc94d80c3b5" style="stroke:#000000;stroke-width:0.8;"/>
      </defs>
      <g>
       <use style="stroke:#000000;stroke-width:0.8;" x="126.9" xlink:href="#mc94d80c3b5" y="504"/>
      </g>
     </g>
     <g id="text_1">
      <!-- 2011 -->
      <defs>
       <path d="M 19.1875 8.296875 
L 53.609375 8.296875 
L 53.609375 0 
L 7.328125 0 
L 7.328125 8.296875 
Q 12.9375 14.109375 22.625 23.890625 
Q 32.328125 33.6875 34.8125 36.53125 
Q 39.546875 41.84375 41.421875 45.53125 
Q 43.3125 49.21875 43.3125 52.78125 
Q 43.3125 58.59375 39.234375 62.25 
Q 35.15625 65.921875 28.609375 65.921875 
Q 23.96875 65.921875 18.8125 64.3125 
Q 13.671875 62.703125 7.8125 59.421875 
L 7.8125 69.390625 
Q 13.765625 71.78125 18.9375 73 
Q 24.125 74.21875 28.421875 74.21875 
Q 39.75 74.21875 46.484375 68.546875 
Q 53.21875 62.890625 53.21875 53.421875 
Q 53.21875 48.921875 51.53125 44.890625 
Q 49.859375 40.875 45.40625 35.40625 
Q 44.1875 33.984375 37.640625 27.21875 
Q 31.109375 20.453125 19.1875 8.296875 
z
" id="DejaVuSans-32"/>
       <path d="M 31.78125 66.40625 
Q 24.171875 66.40625 20.328125 58.90625 
Q 16.5 51.421875 16.5 36.375 
Q 16.5 21.390625 20.328125 13.890625 
Q 24.171875 6.390625 31.78125 6.390625 
Q 39.453125 6.390625 43.28125 13.890625 
Q 47.125 21.390625 47.125 36.375 
Q 47.125 51.421875 43.28125 58.90625 
Q 39.453125 66.40625 31.78125 66.40625 
z
M 31.78125 74.21875 
Q 44.046875 74.21875 50.515625 64.515625 
Q 56.984375 54.828125 56.984375 36.375 
Q 56.984375 17.96875 50.515625 8.265625 
Q 44.046875 -1.421875 31.78125 -1.421875 
Q 19.53125 -1.421875 13.0625 8.265625 
Q 6.59375 17.96875 6.59375 36.375 
Q 6.59375 54.828125 13.0625 64.515625 
Q 19.53125 74.21875 31.78125 74.21875 
z
" id="DejaVuSans-30"/>
       <path d="M 12.40625 8.296875 
L 28.515625 8.296875 
L 28.515625 63.921875 
L 10.984375 60.40625 
L 10.984375 69.390625 
L 28.421875 72.90625 
L 38.28125 72.90625 
L 38.28125 8.296875 
L 54.390625 8.296875 
L 54.390625 0 
L 12.40625 0 
z
" id="DejaVuSans-31"/>
      </defs>
      <g transform="translate(111.63 520.118125)scale(0.12 -0.12)">
       <use xlink:href="#DejaVuSans-32"/>
       <use x="63.623047" xlink:href="#DejaVuSans-30"/>
       <use x="127.246094" xlink:href="#DejaVuSans-31"/>
       <use x="190.869141" xlink:href="#DejaVuSans-31"/>
      </g>
     </g>
    </g>
    <g id="xtick_2">
     <g id="line2d_2">
      <g>
       <use style="stroke:#000000;stroke-width:0.8;" x="266.4" xlink:href="#mc94d80c3b5" y="504"/>
      </g>
     </g>
     <g id="text_2">
      <!-- 2012 -->
      <g transform="translate(251.13 520.118125)scale(0.12 -0.12)">
       <use xlink:href="#DejaVuSans-32"/>
       <use x="63.623047" xlink:href="#DejaVuSans-30"/>
       <use x="127.246094" xlink:href="#DejaVuSans-31"/>
       <use x="190.869141" xlink:href="#DejaVuSans-32"/>
      </g>
     </g>
    </g>
    <g id="xtick_3">
     <g id="line2d_3">
      <g>
       <use style="stroke:#000000;stroke-width:0.8;" x="405.9" xlink:href="#mc94d80c3b5" y="504"/>
      </g>
     </g>
     <g id="text_3">
      <!-- 2013 -->
      <defs>
       <path d="M 40.578125 39.3125 
Q 47.65625 37.796875 51.625 33 
Q 55.609375 28.21875 55.609375 21.1875 
Q 55.609375 10.40625 48.1875 4.484375 
Q 40.765625 -1.421875 27.09375 -1.421875 
Q 22.515625 -1.421875 17.65625 -0.515625 
Q 12.796875 0.390625 7.625 2.203125 
L 7.625 11.71875 
Q 11.71875 9.328125 16.59375 8.109375 
Q 21.484375 6.890625 26.8125 6.890625 
Q 36.078125 6.890625 40.9375 10.546875 
Q 45.796875 14.203125 45.796875 21.1875 
Q 45.796875 27.640625 41.28125 31.265625 
Q 36.765625 34.90625 28.71875 34.90625 
L 20.21875 34.90625 
L 20.21875 43.015625 
L 29.109375 43.015625 
Q 36.375 43.015625 40.234375 45.921875 
Q 44.09375 48.828125 44.09375 54.296875 
Q 44.09375 59.90625 40.109375 62.90625 
Q 36.140625 65.921875 28.71875 65.921875 
Q 24.65625 65.921875 20.015625 65.03125 
Q 15.375 64.15625 9.8125 62.3125 
L 9.8125 71.09375 
Q 15.4375 72.65625 20.34375 73.4375 
Q 25.25 74.21875 29.59375 74.21875 
Q 40.828125 74.21875 47.359375 69.109375 
Q 53.90625 64.015625 53.90625 55.328125 
Q 53.90625 49.265625 50.4375 45.09375 
Q 46.96875 40.921875 40.578125 39.3125 
z
" id="DejaVuSans-33"/>
      </defs>
      <g transform="translate(390.63 520.118125)scale(0.12 -0.12)">
       <use xlink:href="#DejaVuSans-32"/>
       <use x="63.623047" xlink:href="#DejaVuSans-30"/>
       <use x="127.246094" xlink:href="#DejaVuSans-31"/>
       <use x="190.869141" xlink:href="#DejaVuSans-33"/>
      </g>
     </g>
    </g>
    <g id="xtick_4">
     <g id="line2d_4">
      <g>
       <use style="stroke:#000000;stroke-width:0.8;" x="545.4" xlink:href="#mc94d80c3b5" y="504"/>
      </g>
     </g>
     <g id="text_4">
      <!-- 2014 -->
      <defs>
       <path d="M 37.796875 64.3125 
L 12.890625 25.390625 
L 37.796875 25.390625 
z
M 35.203125 72.90625 
L 47.609375 72.90625 
L 47.609375 25.390625 
L 58.015625 25.390625 
L 58.015625 17.1875 
L 47.609375 17.1875 
L 47.609375 0 
L 37.796875 0 
L 37.796875 17.1875 
L 4.890625 17.1875 
L 4.890625 26.703125 
z
" id="DejaVuSans-34"/>
      </defs>
      <g transform="translate(530.13 520.118125)scale(0.12 -0.12)">
       <use xlink:href="#DejaVuSans-32"/>
       <use x="63.623047" xlink:href="#DejaVuSans-30"/>
       <use x="127.246094" xlink:href="#DejaVuSans-31"/>
       <use x="190.869141" xlink:href="#DejaVuSans-34"/>
      </g>
     </g>
    </g>
    <g id="xtick_5">
     <g id="line2d_5">
      <g>
       <use style="stroke:#000000;stroke-width:0.8;" x="684.9" xlink:href="#mc94d80c3b5" y="504"/>
      </g>
     </g>
     <g id="text_5">
      <!-- 2015 -->
      <defs>
       <path d="M 10.796875 72.90625 
L 49.515625 72.90625 
L 49.515625 64.59375 
L 19.828125 64.59375 
L 19.828125 46.734375 
Q 21.96875 47.46875 24.109375 47.828125 
Q 26.265625 48.1875 28.421875 48.1875 
Q 40.625 48.1875 47.75 41.5 
Q 54.890625 34.8125 54.890625 23.390625 
Q 54.890625 11.625 47.5625 5.09375 
Q 40.234375 -1.421875 26.90625 -1.421875 
Q 22.3125 -1.421875 17.546875 -0.640625 
Q 12.796875 0.140625 7.71875 1.703125 
L 7.71875 11.625 
Q 12.109375 9.234375 16.796875 8.0625 
Q 21.484375 6.890625 26.703125 6.890625 
Q 35.15625 6.890625 40.078125 11.328125 
Q 45.015625 15.765625 45.015625 23.390625 
Q 45.015625 31 40.078125 35.4375 
Q 35.15625 39.890625 26.703125 39.890625 
Q 22.75 39.890625 18.8125 39.015625 
Q 14.890625 38.140625 10.796875 36.28125 
z
" id="DejaVuSans-35"/>
      </defs>
      <g transform="translate(669.63 520.118125)scale(0.12 -0.12)">
       <use xlink:href="#DejaVuSans-32"/>
       <use x="63.623047" xlink:href="#DejaVuSans-30"/>
       <use x="127.246094" xlink:href="#DejaVuSans-31"/>
       <use x="190.869141" xlink:href="#DejaVuSans-35"/>
      </g>
     </g>
    </g>
    <g id="text_6">
     <!-- Year -->
     <defs>
      <path d="M -0.984375 72.90625 
L 19.578125 72.90625 
L 36.1875 46.921875 
L 52.78125 72.90625 
L 73.390625 72.90625 
L 45.609375 30.71875 
L 45.609375 0 
L 26.8125 0 
L 26.8125 30.71875 
z
" id="DejaVuSans-Bold-59"/>
      <path d="M 62.984375 27.484375 
L 62.984375 22.515625 
L 22.125 22.515625 
Q 22.75 16.359375 26.5625 13.28125 
Q 30.375 10.203125 37.203125 10.203125 
Q 42.71875 10.203125 48.5 11.84375 
Q 54.296875 13.484375 60.40625 16.796875 
L 60.40625 3.328125 
Q 54.203125 0.984375 48 -0.21875 
Q 41.796875 -1.421875 35.59375 -1.421875 
Q 20.75 -1.421875 12.515625 6.125 
Q 4.296875 13.671875 4.296875 27.296875 
Q 4.296875 40.671875 12.375 48.328125 
Q 20.453125 56 34.625 56 
Q 47.515625 56 55.25 48.234375 
Q 62.984375 40.484375 62.984375 27.484375 
z
M 45.015625 33.296875 
Q 45.015625 38.28125 42.109375 41.328125 
Q 39.203125 44.390625 34.515625 44.390625 
Q 29.4375 44.390625 26.265625 41.53125 
Q 23.09375 38.671875 22.3125 33.296875 
z
" id="DejaVuSans-Bold-65"/>
      <path d="M 32.90625 24.609375 
Q 27.4375 24.609375 24.671875 22.75 
Q 21.921875 20.90625 21.921875 17.28125 
Q 21.921875 13.96875 24.140625 12.078125 
Q 26.375 10.203125 30.328125 10.203125 
Q 35.25 10.203125 38.625 13.734375 
Q 42 17.28125 42 22.609375 
L 42 24.609375 
z
M 59.625 31.203125 
L 59.625 0 
L 42 0 
L 42 8.109375 
Q 38.484375 3.125 34.078125 0.84375 
Q 29.6875 -1.421875 23.390625 -1.421875 
Q 14.890625 -1.421875 9.59375 3.53125 
Q 4.296875 8.5 4.296875 16.40625 
Q 4.296875 26.03125 10.90625 30.515625 
Q 17.53125 35.015625 31.6875 35.015625 
L 42 35.015625 
L 42 36.375 
Q 42 40.53125 38.71875 42.453125 
Q 35.453125 44.390625 28.515625 44.390625 
Q 22.90625 44.390625 18.0625 43.265625 
Q 13.234375 42.140625 9.078125 39.890625 
L 9.078125 53.21875 
Q 14.703125 54.59375 20.359375 55.296875 
Q 26.03125 56 31.6875 56 
Q 46.484375 56 53.046875 50.171875 
Q 59.625 44.34375 59.625 31.203125 
z
" id="DejaVuSans-Bold-61"/>
      <path d="M 49.03125 39.796875 
Q 46.734375 40.875 44.453125 41.375 
Q 42.1875 41.890625 39.890625 41.890625 
Q 33.15625 41.890625 29.515625 37.5625 
Q 25.875 33.25 25.875 25.203125 
L 25.875 0 
L 8.40625 0 
L 8.40625 54.6875 
L 25.875 54.6875 
L 25.875 45.703125 
Q 29.25 51.078125 33.609375 53.53125 
Q 37.984375 56 44.09375 56 
Q 44.96875 56 45.984375 55.921875 
Q 47.015625 55.859375 48.96875 55.609375 
z
" id="DejaVuSans-Bold-72"/>
     </defs>
     <g transform="translate(375.073125 544.85)scale(0.24 -0.24)">
      <use xlink:href="#DejaVuSans-Bold-59"/>
      <use x="72.271484" xlink:href="#DejaVuSans-Bold-65"/>
      <use x="140.09375" xlink:href="#DejaVuSans-Bold-61"/>
      <use x="207.574219" xlink:href="#DejaVuSans-Bold-72"/>
     </g>
    </g>
   </g>
   <g id="matplotlib.axis_2">
    <g id="ytick_1">
     <g id="line2d_6">
      <defs>
       <path d="M 0 0 
L -3.5 0 
" id="mddfd4f1441" style="stroke:#000000;stroke-width:0.8;"/>
      </defs>
      <g>
       <use style="stroke:#000000;stroke-width:0.8;" x="99" xlink:href="#mddfd4f1441" y="501.389228"/>
      </g>
     </g>
     <g id="text_7">
      <!-- 60 -->
      <defs>
       <path d="M 33.015625 40.375 
Q 26.375 40.375 22.484375 35.828125 
Q 18.609375 31.296875 18.609375 23.390625 
Q 18.609375 15.53125 22.484375 10.953125 
Q 26.375 6.390625 33.015625 6.390625 
Q 39.65625 6.390625 43.53125 10.953125 
Q 47.40625 15.53125 47.40625 23.390625 
Q 47.40625 31.296875 43.53125 35.828125 
Q 39.65625 40.375 33.015625 40.375 
z
M 52.59375 71.296875 
L 52.59375 62.3125 
Q 48.875 64.0625 45.09375 64.984375 
Q 41.3125 65.921875 37.59375 65.921875 
Q 27.828125 65.921875 22.671875 59.328125 
Q 17.53125 52.734375 16.796875 39.40625 
Q 19.671875 43.65625 24.015625 45.921875 
Q 28.375 48.1875 33.59375 48.1875 
Q 44.578125 48.1875 50.953125 41.515625 
Q 57.328125 34.859375 57.328125 23.390625 
Q 57.328125 12.15625 50.6875 5.359375 
Q 44.046875 -1.421875 33.015625 -1.421875 
Q 20.359375 -1.421875 13.671875 8.265625 
Q 6.984375 17.96875 6.984375 36.375 
Q 6.984375 53.65625 15.1875 63.9375 
Q 23.390625 74.21875 37.203125 74.21875 
Q 40.921875 74.21875 44.703125 73.484375 
Q 48.484375 72.75 52.59375 71.296875 
z
" id="DejaVuSans-36"/>
      </defs>
      <g transform="translate(76.73 505.948291)scale(0.12 -0.12)">
       <use xlink:href="#DejaVuSans-36"/>
       <use x="63.623047" xlink:href="#DejaVuSans-30"/>
      </g>
     </g>
    </g>
    <g id="ytick_2">
     <g id="line2d_7">
      <g>
       <use style="stroke:#000000;stroke-width:0.8;" x="99" xlink:href="#mddfd4f1441" y="456.633139"/>
      </g>
     </g>
     <g id="text_8">
      <!-- 120 -->
      <g transform="translate(69.095 461.192201)scale(0.12 -0.12)">
       <use xlink:href="#DejaVuSans-31"/>
       <use x="63.623047" xlink:href="#DejaVuSans-32"/>
       <use x="127.246094" xlink:href="#DejaVuSans-30"/>
      </g>
     </g>
    </g>
    <g id="ytick_3">
     <g id="line2d_8">
      <g>
       <use style="stroke:#000000;stroke-width:0.8;" x="99" xlink:href="#mddfd4f1441" y="411.87705"/>
      </g>
     </g>
     <g id="text_9">
      <!-- 180 -->
      <defs>
       <path d="M 31.78125 34.625 
Q 24.75 34.625 20.71875 30.859375 
Q 16.703125 27.09375 16.703125 20.515625 
Q 16.703125 13.921875 20.71875 10.15625 
Q 24.75 6.390625 31.78125 6.390625 
Q 38.8125 6.390625 42.859375 10.171875 
Q 46.921875 13.96875 46.921875 20.515625 
Q 46.921875 27.09375 42.890625 30.859375 
Q 38.875 34.625 31.78125 34.625 
z
M 21.921875 38.8125 
Q 15.578125 40.375 12.03125 44.71875 
Q 8.5 49.078125 8.5 55.328125 
Q 8.5 64.0625 14.71875 69.140625 
Q 20.953125 74.21875 31.78125 74.21875 
Q 42.671875 74.21875 48.875 69.140625 
Q 55.078125 64.0625 55.078125 55.328125 
Q 55.078125 49.078125 51.53125 44.71875 
Q 48 40.375 41.703125 38.8125 
Q 48.828125 37.15625 52.796875 32.3125 
Q 56.78125 27.484375 56.78125 20.515625 
Q 56.78125 9.90625 50.3125 4.234375 
Q 43.84375 -1.421875 31.78125 -1.421875 
Q 19.734375 -1.421875 13.25 4.234375 
Q 6.78125 9.90625 6.78125 20.515625 
Q 6.78125 27.484375 10.78125 32.3125 
Q 14.796875 37.15625 21.921875 38.8125 
z
M 18.3125 54.390625 
Q 18.3125 48.734375 21.84375 45.5625 
Q 25.390625 42.390625 31.78125 42.390625 
Q 38.140625 42.390625 41.71875 45.5625 
Q 45.3125 48.734375 45.3125 54.390625 
Q 45.3125 60.0625 41.71875 63.234375 
Q 38.140625 66.40625 31.78125 66.40625 
Q 25.390625 66.40625 21.84375 63.234375 
Q 18.3125 60.0625 18.3125 54.390625 
z
" id="DejaVuSans-38"/>
      </defs>
      <g transform="translate(69.095 416.436112)scale(0.12 -0.12)">
       <use xlink:href="#DejaVuSans-31"/>
       <use x="63.623047" xlink:href="#DejaVuSans-38"/>
       <use x="127.246094" xlink:href="#DejaVuSans-30"/>
      </g>
     </g>
    </g>
    <g id="ytick_4">
     <g id="line2d_9">
      <g>
       <use style="stroke:#000000;stroke-width:0.8;" x="99" xlink:href="#mddfd4f1441" y="367.120961"/>
      </g>
     </g>
     <g id="text_10">
      <!-- 240 -->
      <g transform="translate(69.095 371.680023)scale(0.12 -0.12)">
       <use xlink:href="#DejaVuSans-32"/>
       <use x="63.623047" xlink:href="#DejaVuSans-34"/>
       <use x="127.246094" xlink:href="#DejaVuSans-30"/>
      </g>
     </g>
    </g>
    <g id="ytick_5">
     <g id="line2d_10">
      <g>
       <use style="stroke:#000000;stroke-width:0.8;" x="99" xlink:href="#mddfd4f1441" y="322.364871"/>
      </g>
     </g>
     <g id="text_11">
      <!-- 300 -->
      <g transform="translate(69.095 326.923934)scale(0.12 -0.12)">
       <use xlink:href="#DejaVuSans-33"/>
       <use x="63.623047" xlink:href="#DejaVuSans-30"/>
       <use x="127.246094" xlink:href="#DejaVuSans-30"/>
      </g>
     </g>
    </g>
    <g id="ytick_6">
     <g id="line2d_11">
      <g>
       <use style="stroke:#000000;stroke-width:0.8;" x="99" xlink:href="#mddfd4f1441" y="277.608782"/>
      </g>
     </g>
     <g id="text_12">
      <!-- 360 -->
      <g transform="translate(69.095 282.167845)scale(0.12 -0.12)">
       <use xlink:href="#DejaVuSans-33"/>
       <use x="63.623047" xlink:href="#DejaVuSans-36"/>
       <use x="127.246094" xlink:href="#DejaVuSans-30"/>
      </g>
     </g>
    </g>
    <g id="ytick_7">
     <g id="line2d_12">
      <g>
       <use style="stroke:#000000;stroke-width:0.8;" x="99" xlink:href="#mddfd4f1441" y="232.852693"/>
      </g>
     </g>
     <g id="text_13">
      <!-- 420 -->
      <g transform="translate(69.095 237.411755)scale(0.12 -0.12)">
       <use xlink:href="#DejaVuSans-34"/>
       <use x="63.623047" xlink:href="#DejaVuSans-32"/>
       <use x="127.246094" xlink:href="#DejaVuSans-30"/>
      </g>
     </g>
    </g>
    <g id="ytick_8">
     <g id="line2d_13">
      <g>
       <use style="stroke:#000000;stroke-width:0.8;" x="99" xlink:href="#mddfd4f1441" y="188.096604"/>
      </g>
     </g>
     <g id="text_14">
      <!-- 480 -->
      <g transform="translate(69.095 192.655666)scale(0.12 -0.12)">
       <use xlink:href="#DejaVuSans-34"/>
       <use x="63.623047" xlink:href="#DejaVuSans-38"/>
       <use x="127.246094" xlink:href="#DejaVuSans-30"/>
      </g>
     </g>
    </g>
    <g id="ytick_9">
     <g id="line2d_14">
      <g>
       <use style="stroke:#000000;stroke-width:0.8;" x="99" xlink:href="#mddfd4f1441" y="143.340515"/>
      </g>
     </g>
     <g id="text_15">
      <!-- 540 -->
      <g transform="translate(69.095 147.899577)scale(0.12 -0.12)">
       <use xlink:href="#DejaVuSans-35"/>
       <use x="63.623047" xlink:href="#DejaVuSans-34"/>
       <use x="127.246094" xlink:href="#DejaVuSans-30"/>
      </g>
     </g>
    </g>
    <g id="ytick_10">
     <g id="line2d_15">
      <g>
       <use style="stroke:#000000;stroke-width:0.8;" x="99" xlink:href="#mddfd4f1441" y="98.584425"/>
      </g>
     </g>
     <g id="text_16">
      <!-- 600 -->
      <g transform="translate(69.095 103.143488)scale(0.12 -0.12)">
       <use xlink:href="#DejaVuSans-36"/>
       <use x="63.623047" xlink:href="#DejaVuSans-30"/>
       <use x="127.246094" xlink:href="#DejaVuSans-30"/>
      </g>
     </g>
    </g>
    <g id="text_17">
     <!-- Discharges -->
     <defs>
      <path d="M 27.984375 58.6875 
L 27.984375 14.203125 
L 34.71875 14.203125 
Q 46.234375 14.203125 52.3125 19.921875 
Q 58.40625 25.640625 58.40625 36.53125 
Q 58.40625 47.359375 52.34375 53.015625 
Q 46.296875 58.6875 34.71875 58.6875 
z
M 9.1875 72.90625 
L 29 72.90625 
Q 45.609375 72.90625 53.734375 70.53125 
Q 61.859375 68.171875 67.671875 62.5 
Q 72.796875 57.5625 75.28125 51.109375 
Q 77.78125 44.671875 77.78125 36.53125 
Q 77.78125 28.265625 75.28125 21.796875 
Q 72.796875 15.328125 67.671875 10.40625 
Q 61.8125 4.734375 53.609375 2.359375 
Q 45.40625 0 29 0 
L 9.1875 0 
z
" id="DejaVuSans-Bold-44"/>
      <path d="M 8.40625 54.6875 
L 25.875 54.6875 
L 25.875 0 
L 8.40625 0 
z
M 8.40625 75.984375 
L 25.875 75.984375 
L 25.875 61.71875 
L 8.40625 61.71875 
z
" id="DejaVuSans-Bold-69"/>
      <path d="M 51.125 52.984375 
L 51.125 39.703125 
Q 45.515625 42.046875 40.28125 43.21875 
Q 35.0625 44.390625 30.421875 44.390625 
Q 25.4375 44.390625 23.015625 43.140625 
Q 20.609375 41.890625 20.609375 39.3125 
Q 20.609375 37.203125 22.4375 36.078125 
Q 24.265625 34.96875 29 34.421875 
L 32.078125 33.984375 
Q 45.515625 32.28125 50.140625 28.375 
Q 54.78125 24.46875 54.78125 16.109375 
Q 54.78125 7.375 48.328125 2.96875 
Q 41.890625 -1.421875 29.109375 -1.421875 
Q 23.6875 -1.421875 17.890625 -0.5625 
Q 12.109375 0.296875 6 2 
L 6 15.28125 
Q 11.234375 12.75 16.71875 11.46875 
Q 22.21875 10.203125 27.875 10.203125 
Q 33.015625 10.203125 35.59375 11.609375 
Q 38.1875 13.03125 38.1875 15.828125 
Q 38.1875 18.171875 36.40625 19.3125 
Q 34.625 20.453125 29.296875 21.09375 
L 26.21875 21.484375 
Q 14.546875 22.953125 9.859375 26.90625 
Q 5.171875 30.859375 5.171875 38.921875 
Q 5.171875 47.609375 11.125 51.796875 
Q 17.09375 56 29.390625 56 
Q 34.234375 56 39.546875 55.265625 
Q 44.875 54.546875 51.125 52.984375 
z
" id="DejaVuSans-Bold-73"/>
      <path d="M 52.59375 52.984375 
L 52.59375 38.71875 
Q 49.03125 41.15625 45.4375 42.328125 
Q 41.84375 43.5 37.984375 43.5 
Q 30.671875 43.5 26.59375 39.234375 
Q 22.515625 34.96875 22.515625 27.296875 
Q 22.515625 19.625 26.59375 15.34375 
Q 30.671875 11.078125 37.984375 11.078125 
Q 42.09375 11.078125 45.78125 12.296875 
Q 49.46875 13.53125 52.59375 15.921875 
L 52.59375 1.609375 
Q 48.484375 0.09375 44.265625 -0.65625 
Q 40.046875 -1.421875 35.796875 -1.421875 
Q 21 -1.421875 12.640625 6.171875 
Q 4.296875 13.765625 4.296875 27.296875 
Q 4.296875 40.828125 12.640625 48.40625 
Q 21 56 35.796875 56 
Q 40.09375 56 44.265625 55.25 
Q 48.4375 54.5 52.59375 52.984375 
z
" id="DejaVuSans-Bold-63"/>
      <path d="M 63.375 33.296875 
L 63.375 0 
L 45.796875 0 
L 45.796875 5.421875 
L 45.796875 25.390625 
Q 45.796875 32.5625 45.484375 35.25 
Q 45.171875 37.9375 44.390625 39.203125 
Q 43.359375 40.921875 41.59375 41.875 
Q 39.84375 42.828125 37.59375 42.828125 
Q 32.125 42.828125 29 38.59375 
Q 25.875 34.375 25.875 26.90625 
L 25.875 0 
L 8.40625 0 
L 8.40625 75.984375 
L 25.875 75.984375 
L 25.875 46.6875 
Q 29.828125 51.46875 34.265625 53.734375 
Q 38.71875 56 44.09375 56 
Q 53.5625 56 58.46875 50.1875 
Q 63.375 44.390625 63.375 33.296875 
z
" id="DejaVuSans-Bold-68"/>
      <path d="M 45.609375 9.28125 
Q 42 4.5 37.640625 2.25 
Q 33.296875 0 27.59375 0 
Q 17.578125 0 11.03125 7.875 
Q 4.5 15.765625 4.5 27.984375 
Q 4.5 40.234375 11.03125 48.0625 
Q 17.578125 55.90625 27.59375 55.90625 
Q 33.296875 55.90625 37.640625 53.65625 
Q 42 51.421875 45.609375 46.578125 
L 45.609375 54.6875 
L 63.1875 54.6875 
L 63.1875 5.515625 
Q 63.1875 -7.671875 54.859375 -14.625 
Q 46.53125 -21.578125 30.71875 -21.578125 
Q 25.59375 -21.578125 20.796875 -20.796875 
Q 16.015625 -20.015625 11.1875 -18.40625 
L 11.1875 -4.78125 
Q 15.765625 -7.421875 20.15625 -8.71875 
Q 24.5625 -10.015625 29 -10.015625 
Q 37.59375 -10.015625 41.59375 -6.25 
Q 45.609375 -2.484375 45.609375 5.515625 
z
M 34.078125 43.3125 
Q 28.65625 43.3125 25.625 39.296875 
Q 22.609375 35.296875 22.609375 27.984375 
Q 22.609375 20.453125 25.53125 16.578125 
Q 28.46875 12.703125 34.078125 12.703125 
Q 39.546875 12.703125 42.578125 16.703125 
Q 45.609375 20.703125 45.609375 27.984375 
Q 45.609375 35.296875 42.578125 39.296875 
Q 39.546875 43.3125 34.078125 43.3125 
z
" id="DejaVuSans-Bold-67"/>
     </defs>
     <g transform="translate(61.210938 342.63)rotate(-90)scale(0.18 -0.18)">
      <use xlink:href="#DejaVuSans-Bold-44"/>
      <use x="83.007812" xlink:href="#DejaVuSans-Bold-69"/>
      <use x="117.285156" xlink:href="#DejaVuSans-Bold-73"/>
      <use x="176.806641" xlink:href="#DejaVuSans-Bold-63"/>
      <use x="236.083984" xlink:href="#DejaVuSans-Bold-68"/>
      <use x="307.275391" xlink:href="#DejaVuSans-Bold-61"/>
      <use x="374.755859" xlink:href="#DejaVuSans-Bold-72"/>
      <use x="424.072266" xlink:href="#DejaVuSans-Bold-67"/>
      <use x="495.654297" xlink:href="#DejaVuSans-Bold-65"/>
      <use x="563.476562" xlink:href="#DejaVuSans-Bold-73"/>
     </g>
    </g>
   </g>
   <g id="line2d_16">
    <path clip-path="url(#pc9752dd7fa)" d="M 126.9 484.232727 
L 266.4 470.805901 
L 405.9 347.726655 
L 545.4 196.301887 
L 684.9 88.887273 
" style="fill:none;stroke:#e50000;stroke-linecap:square;stroke-width:1.5;"/>
   </g>
   <g id="line2d_17">
    <path clip-path="url(#pc9752dd7fa)" d="M 126.9 483.486792 
L 266.4 463.346552 
L 405.9 376.818113 
L 545.4 370.1047 
L 684.9 261.198216 
" style="fill:none;stroke:#75bbfd;stroke-linecap:square;stroke-width:1.5;"/>
   </g>
   <g id="line2d_18">
    <path clip-path="url(#pc9752dd7fa)" d="M 126.9 393.228679 
L 266.4 393.974614 
L 405.9 387.261201 
L 545.4 377.564048 
L 684.9 264.181955 
" style="fill:none;stroke:#7e1e9c;stroke-linecap:square;stroke-width:1.5;"/>
   </g>
   <g id="line2d_19">
    <path clip-path="url(#pc9752dd7fa)" d="M 126.9 422.320137 
L 266.4 404.417702 
L 405.9 382.039657 
L 545.4 373.834374 
L 684.9 265.673825 
" style="fill:none;stroke:#15b01a;stroke-linecap:square;stroke-width:1.5;"/>
   </g>
   <g id="line2d_20">
    <path clip-path="url(#pc9752dd7fa)" d="M 126.9 399.196158 
L 266.4 335.045763 
L 405.9 361.899417 
L 545.4 317.889262 
L 684.9 294.019348 
" style="fill:none;stroke:#0343df;stroke-linecap:square;stroke-width:1.5;"/>
   </g>
   <g id="line2d_21">
    <path clip-path="url(#pc9752dd7fa)" d="M 126.9 417.098593 
L 266.4 336.537633 
L 405.9 345.488851 
L 545.4 350.710395 
L 684.9 316.397393 
" style="fill:none;stroke:#ff81c0;stroke-linecap:square;stroke-width:1.5;"/>
   </g>
   <g id="line2d_22">
    <path clip-path="url(#pc9752dd7fa)" d="M 126.9 438.730703 
L 266.4 408.147376 
L 405.9 388.75307 
L 545.4 346.234786 
L 684.9 321.618937 
" style="fill:none;stroke:#653700;stroke-linecap:square;stroke-width:1.5;"/>
   </g>
   <g id="line2d_23">
    <path clip-path="url(#pc9752dd7fa)" d="M 126.9 398.450223 
L 266.4 373.088439 
L 405.9 344.742916 
L 545.4 350.710395 
L 684.9 323.110806 
" style="fill:none;stroke:#75bbfd;stroke-linecap:square;stroke-width:1.5;"/>
   </g>
   <g id="line2d_24">
    <path clip-path="url(#pc9752dd7fa)" d="M 126.9 425.303877 
L 266.4 412.622985 
L 405.9 402.925832 
L 545.4 398.450223 
L 684.9 331.316089 
" style="fill:none;stroke:#029386;stroke-linecap:square;stroke-width:1.5;"/>
   </g>
   <g id="line2d_25">
    <path clip-path="url(#pc9752dd7fa)" d="M 126.9 456.633139 
L 266.4 427.541681 
L 405.9 396.212419 
L 545.4 370.850635 
L 684.9 332.807959 
" style="fill:none;stroke:#f97306;stroke-linecap:square;stroke-width:1.5;"/>
   </g>
   <g id="patch_3">
    <path d="M 99 504 
L 99 69.12 
" style="fill:none;stroke:#000000;stroke-linecap:square;stroke-linejoin:miter;stroke-width:0.8;"/>
   </g>
   <g id="patch_4">
    <path d="M 712.8 504 
L 712.8 69.12 
" style="fill:none;stroke:#000000;stroke-linecap:square;stroke-linejoin:miter;stroke-width:0.8;"/>
   </g>
   <g id="patch_5">
    <path d="M 99 504 
L 712.8 504 
" style="fill:none;stroke:#000000;stroke-linecap:square;stroke-linejoin:miter;stroke-width:0.8;"/>
   </g>
   <g id="patch_6">
    <path d="M 99 69.12 
L 712.8 69.12 
" style="fill:none;stroke:#000000;stroke-linecap:square;stroke-linejoin:miter;stroke-width:0.8;"/>
   </g>
   <g id="text_18">
    <!-- DRG files/Longitudinal Rankings 872.csv -->
    <defs>
     <path d="M 19.671875 64.796875 
L 19.671875 8.109375 
L 31.59375 8.109375 
Q 46.6875 8.109375 53.6875 14.9375 
Q 60.6875 21.78125 60.6875 36.53125 
Q 60.6875 51.171875 53.6875 57.984375 
Q 46.6875 64.796875 31.59375 64.796875 
z
M 9.8125 72.90625 
L 30.078125 72.90625 
Q 51.265625 72.90625 61.171875 64.09375 
Q 71.09375 55.28125 71.09375 36.53125 
Q 71.09375 17.671875 61.125 8.828125 
Q 51.171875 0 30.078125 0 
L 9.8125 0 
z
" id="DejaVuSans-44"/>
     <path d="M 44.390625 34.1875 
Q 47.5625 33.109375 50.5625 29.59375 
Q 53.5625 26.078125 56.59375 19.921875 
L 66.609375 0 
L 56 0 
L 46.6875 18.703125 
Q 43.0625 26.03125 39.671875 28.421875 
Q 36.28125 30.8125 30.421875 30.8125 
L 19.671875 30.8125 
L 19.671875 0 
L 9.8125 0 
L 9.8125 72.90625 
L 32.078125 72.90625 
Q 44.578125 72.90625 50.734375 67.671875 
Q 56.890625 62.453125 56.890625 51.90625 
Q 56.890625 45.015625 53.6875 40.46875 
Q 50.484375 35.9375 44.390625 34.1875 
z
M 19.671875 64.796875 
L 19.671875 38.921875 
L 32.078125 38.921875 
Q 39.203125 38.921875 42.84375 42.21875 
Q 46.484375 45.515625 46.484375 51.90625 
Q 46.484375 58.296875 42.84375 61.546875 
Q 39.203125 64.796875 32.078125 64.796875 
z
" id="DejaVuSans-52"/>
     <path d="M 59.515625 10.40625 
L 59.515625 29.984375 
L 43.40625 29.984375 
L 43.40625 38.09375 
L 69.28125 38.09375 
L 69.28125 6.78125 
Q 63.578125 2.734375 56.6875 0.65625 
Q 49.8125 -1.421875 42 -1.421875 
Q 24.90625 -1.421875 15.25 8.5625 
Q 5.609375 18.5625 5.609375 36.375 
Q 5.609375 54.25 15.25 64.234375 
Q 24.90625 74.21875 42 74.21875 
Q 49.125 74.21875 55.546875 72.453125 
Q 61.96875 70.703125 67.390625 67.28125 
L 67.390625 56.78125 
Q 61.921875 61.421875 55.765625 63.765625 
Q 49.609375 66.109375 42.828125 66.109375 
Q 29.4375 66.109375 22.71875 58.640625 
Q 16.015625 51.171875 16.015625 36.375 
Q 16.015625 21.625 22.71875 14.15625 
Q 29.4375 6.6875 42.828125 6.6875 
Q 48.046875 6.6875 52.140625 7.59375 
Q 56.25 8.5 59.515625 10.40625 
z
" id="DejaVuSans-47"/>
     <path id="DejaVuSans-20"/>
     <path d="M 37.109375 75.984375 
L 37.109375 68.5 
L 28.515625 68.5 
Q 23.6875 68.5 21.796875 66.546875 
Q 19.921875 64.59375 19.921875 59.515625 
L 19.921875 54.6875 
L 34.71875 54.6875 
L 34.71875 47.703125 
L 19.921875 47.703125 
L 19.921875 0 
L 10.890625 0 
L 10.890625 47.703125 
L 2.296875 47.703125 
L 2.296875 54.6875 
L 10.890625 54.6875 
L 10.890625 58.5 
Q 10.890625 67.625 15.140625 71.796875 
Q 19.390625 75.984375 28.609375 75.984375 
z
" id="DejaVuSans-66"/>
     <path d="M 9.421875 54.6875 
L 18.40625 54.6875 
L 18.40625 0 
L 9.421875 0 
z
M 9.421875 75.984375 
L 18.40625 75.984375 
L 18.40625 64.59375 
L 9.421875 64.59375 
z
" id="DejaVuSans-69"/>
     <path d="M 9.421875 75.984375 
L 18.40625 75.984375 
L 18.40625 0 
L 9.421875 0 
z
" id="DejaVuSans-6c"/>
     <path d="M 56.203125 29.59375 
L 56.203125 25.203125 
L 14.890625 25.203125 
Q 15.484375 15.921875 20.484375 11.0625 
Q 25.484375 6.203125 34.421875 6.203125 
Q 39.59375 6.203125 44.453125 7.46875 
Q 49.3125 8.734375 54.109375 11.28125 
L 54.109375 2.78125 
Q 49.265625 0.734375 44.1875 -0.34375 
Q 39.109375 -1.421875 33.890625 -1.421875 
Q 20.796875 -1.421875 13.15625 6.1875 
Q 5.515625 13.8125 5.515625 26.8125 
Q 5.515625 40.234375 12.765625 48.109375 
Q 20.015625 56 32.328125 56 
Q 43.359375 56 49.78125 48.890625 
Q 56.203125 41.796875 56.203125 29.59375 
z
M 47.21875 32.234375 
Q 47.125 39.59375 43.09375 43.984375 
Q 39.0625 48.390625 32.421875 48.390625 
Q 24.90625 48.390625 20.390625 44.140625 
Q 15.875 39.890625 15.1875 32.171875 
z
" id="DejaVuSans-65"/>
     <path d="M 44.28125 53.078125 
L 44.28125 44.578125 
Q 40.484375 46.53125 36.375 47.5 
Q 32.28125 48.484375 27.875 48.484375 
Q 21.1875 48.484375 17.84375 46.4375 
Q 14.5 44.390625 14.5 40.28125 
Q 14.5 37.15625 16.890625 35.375 
Q 19.28125 33.59375 26.515625 31.984375 
L 29.59375 31.296875 
Q 39.15625 29.25 43.1875 25.515625 
Q 47.21875 21.78125 47.21875 15.09375 
Q 47.21875 7.46875 41.1875 3.015625 
Q 35.15625 -1.421875 24.609375 -1.421875 
Q 20.21875 -1.421875 15.453125 -0.5625 
Q 10.6875 0.296875 5.421875 2 
L 5.421875 11.28125 
Q 10.40625 8.6875 15.234375 7.390625 
Q 20.0625 6.109375 24.8125 6.109375 
Q 31.15625 6.109375 34.5625 8.28125 
Q 37.984375 10.453125 37.984375 14.40625 
Q 37.984375 18.0625 35.515625 20.015625 
Q 33.0625 21.96875 24.703125 23.78125 
L 21.578125 24.515625 
Q 13.234375 26.265625 9.515625 29.90625 
Q 5.8125 33.546875 5.8125 39.890625 
Q 5.8125 47.609375 11.28125 51.796875 
Q 16.75 56 26.8125 56 
Q 31.78125 56 36.171875 55.265625 
Q 40.578125 54.546875 44.28125 53.078125 
z
" id="DejaVuSans-73"/>
     <path d="M 25.390625 72.90625 
L 33.6875 72.90625 
L 8.296875 -9.28125 
L 0 -9.28125 
z
" id="DejaVuSans-2f"/>
     <path d="M 9.8125 72.90625 
L 19.671875 72.90625 
L 19.671875 8.296875 
L 55.171875 8.296875 
L 55.171875 0 
L 9.8125 0 
z
" id="DejaVuSans-4c"/>
     <path d="M 30.609375 48.390625 
Q 23.390625 48.390625 19.1875 42.75 
Q 14.984375 37.109375 14.984375 27.296875 
Q 14.984375 17.484375 19.15625 11.84375 
Q 23.34375 6.203125 30.609375 6.203125 
Q 37.796875 6.203125 41.984375 11.859375 
Q 46.1875 17.53125 46.1875 27.296875 
Q 46.1875 37.015625 41.984375 42.703125 
Q 37.796875 48.390625 30.609375 48.390625 
z
M 30.609375 56 
Q 42.328125 56 49.015625 48.375 
Q 55.71875 40.765625 55.71875 27.296875 
Q 55.71875 13.875 49.015625 6.21875 
Q 42.328125 -1.421875 30.609375 -1.421875 
Q 18.84375 -1.421875 12.171875 6.21875 
Q 5.515625 13.875 5.515625 27.296875 
Q 5.515625 40.765625 12.171875 48.375 
Q 18.84375 56 30.609375 56 
z
" id="DejaVuSans-6f"/>
     <path d="M 54.890625 33.015625 
L 54.890625 0 
L 45.90625 0 
L 45.90625 32.71875 
Q 45.90625 40.484375 42.875 44.328125 
Q 39.84375 48.1875 33.796875 48.1875 
Q 26.515625 48.1875 22.3125 43.546875 
Q 18.109375 38.921875 18.109375 30.90625 
L 18.109375 0 
L 9.078125 0 
L 9.078125 54.6875 
L 18.109375 54.6875 
L 18.109375 46.1875 
Q 21.34375 51.125 25.703125 53.5625 
Q 30.078125 56 35.796875 56 
Q 45.21875 56 50.046875 50.171875 
Q 54.890625 44.34375 54.890625 33.015625 
z
" id="DejaVuSans-6e"/>
     <path d="M 45.40625 27.984375 
Q 45.40625 37.75 41.375 43.109375 
Q 37.359375 48.484375 30.078125 48.484375 
Q 22.859375 48.484375 18.828125 43.109375 
Q 14.796875 37.75 14.796875 27.984375 
Q 14.796875 18.265625 18.828125 12.890625 
Q 22.859375 7.515625 30.078125 7.515625 
Q 37.359375 7.515625 41.375 12.890625 
Q 45.40625 18.265625 45.40625 27.984375 
z
M 54.390625 6.78125 
Q 54.390625 -7.171875 48.1875 -13.984375 
Q 42 -20.796875 29.203125 -20.796875 
Q 24.46875 -20.796875 20.265625 -20.09375 
Q 16.0625 -19.390625 12.109375 -17.921875 
L 12.109375 -9.1875 
Q 16.0625 -11.328125 19.921875 -12.34375 
Q 23.78125 -13.375 27.78125 -13.375 
Q 36.625 -13.375 41.015625 -8.765625 
Q 45.40625 -4.15625 45.40625 5.171875 
L 45.40625 9.625 
Q 42.625 4.78125 38.28125 2.390625 
Q 33.9375 0 27.875 0 
Q 17.828125 0 11.671875 7.65625 
Q 5.515625 15.328125 5.515625 27.984375 
Q 5.515625 40.671875 11.671875 48.328125 
Q 17.828125 56 27.875 56 
Q 33.9375 56 38.28125 53.609375 
Q 42.625 51.21875 45.40625 46.390625 
L 45.40625 54.6875 
L 54.390625 54.6875 
z
" id="DejaVuSans-67"/>
     <path d="M 18.3125 70.21875 
L 18.3125 54.6875 
L 36.8125 54.6875 
L 36.8125 47.703125 
L 18.3125 47.703125 
L 18.3125 18.015625 
Q 18.3125 11.328125 20.140625 9.421875 
Q 21.96875 7.515625 27.59375 7.515625 
L 36.8125 7.515625 
L 36.8125 0 
L 27.59375 0 
Q 17.1875 0 13.234375 3.875 
Q 9.28125 7.765625 9.28125 18.015625 
L 9.28125 47.703125 
L 2.6875 47.703125 
L 2.6875 54.6875 
L 9.28125 54.6875 
L 9.28125 70.21875 
z
" id="DejaVuSans-74"/>
     <path d="M 8.5 21.578125 
L 8.5 54.6875 
L 17.484375 54.6875 
L 17.484375 21.921875 
Q 17.484375 14.15625 20.5 10.265625 
Q 23.53125 6.390625 29.59375 6.390625 
Q 36.859375 6.390625 41.078125 11.03125 
Q 45.3125 15.671875 45.3125 23.6875 
L 45.3125 54.6875 
L 54.296875 54.6875 
L 54.296875 0 
L 45.3125 0 
L 45.3125 8.40625 
Q 42.046875 3.421875 37.71875 1 
Q 33.40625 -1.421875 27.6875 -1.421875 
Q 18.265625 -1.421875 13.375 4.4375 
Q 8.5 10.296875 8.5 21.578125 
z
M 31.109375 56 
z
" id="DejaVuSans-75"/>
     <path d="M 45.40625 46.390625 
L 45.40625 75.984375 
L 54.390625 75.984375 
L 54.390625 0 
L 45.40625 0 
L 45.40625 8.203125 
Q 42.578125 3.328125 38.25 0.953125 
Q 33.9375 -1.421875 27.875 -1.421875 
Q 17.96875 -1.421875 11.734375 6.484375 
Q 5.515625 14.40625 5.515625 27.296875 
Q 5.515625 40.1875 11.734375 48.09375 
Q 17.96875 56 27.875 56 
Q 33.9375 56 38.25 53.625 
Q 42.578125 51.265625 45.40625 46.390625 
z
M 14.796875 27.296875 
Q 14.796875 17.390625 18.875 11.75 
Q 22.953125 6.109375 30.078125 6.109375 
Q 37.203125 6.109375 41.296875 11.75 
Q 45.40625 17.390625 45.40625 27.296875 
Q 45.40625 37.203125 41.296875 42.84375 
Q 37.203125 48.484375 30.078125 48.484375 
Q 22.953125 48.484375 18.875 42.84375 
Q 14.796875 37.203125 14.796875 27.296875 
z
" id="DejaVuSans-64"/>
     <path d="M 34.28125 27.484375 
Q 23.390625 27.484375 19.1875 25 
Q 14.984375 22.515625 14.984375 16.5 
Q 14.984375 11.71875 18.140625 8.90625 
Q 21.296875 6.109375 26.703125 6.109375 
Q 34.1875 6.109375 38.703125 11.40625 
Q 43.21875 16.703125 43.21875 25.484375 
L 43.21875 27.484375 
z
M 52.203125 31.203125 
L 52.203125 0 
L 43.21875 0 
L 43.21875 8.296875 
Q 40.140625 3.328125 35.546875 0.953125 
Q 30.953125 -1.421875 24.3125 -1.421875 
Q 15.921875 -1.421875 10.953125 3.296875 
Q 6 8.015625 6 15.921875 
Q 6 25.140625 12.171875 29.828125 
Q 18.359375 34.515625 30.609375 34.515625 
L 43.21875 34.515625 
L 43.21875 35.40625 
Q 43.21875 41.609375 39.140625 45 
Q 35.0625 48.390625 27.6875 48.390625 
Q 23 48.390625 18.546875 47.265625 
Q 14.109375 46.140625 10.015625 43.890625 
L 10.015625 52.203125 
Q 14.9375 54.109375 19.578125 55.046875 
Q 24.21875 56 28.609375 56 
Q 40.484375 56 46.34375 49.84375 
Q 52.203125 43.703125 52.203125 31.203125 
z
" id="DejaVuSans-61"/>
     <path d="M 9.078125 75.984375 
L 18.109375 75.984375 
L 18.109375 31.109375 
L 44.921875 54.6875 
L 56.390625 54.6875 
L 27.390625 29.109375 
L 57.625 0 
L 45.90625 0 
L 18.109375 26.703125 
L 18.109375 0 
L 9.078125 0 
z
" id="DejaVuSans-6b"/>
     <path d="M 8.203125 72.90625 
L 55.078125 72.90625 
L 55.078125 68.703125 
L 28.609375 0 
L 18.3125 0 
L 43.21875 64.59375 
L 8.203125 64.59375 
z
" id="DejaVuSans-37"/>
     <path d="M 10.6875 12.40625 
L 21 12.40625 
L 21 0 
L 10.6875 0 
z
" id="DejaVuSans-2e"/>
     <path d="M 48.78125 52.59375 
L 48.78125 44.1875 
Q 44.96875 46.296875 41.140625 47.34375 
Q 37.3125 48.390625 33.40625 48.390625 
Q 24.65625 48.390625 19.8125 42.84375 
Q 14.984375 37.3125 14.984375 27.296875 
Q 14.984375 17.28125 19.8125 11.734375 
Q 24.65625 6.203125 33.40625 6.203125 
Q 37.3125 6.203125 41.140625 7.25 
Q 44.96875 8.296875 48.78125 10.40625 
L 48.78125 2.09375 
Q 45.015625 0.34375 40.984375 -0.53125 
Q 36.96875 -1.421875 32.421875 -1.421875 
Q 20.0625 -1.421875 12.78125 6.34375 
Q 5.515625 14.109375 5.515625 27.296875 
Q 5.515625 40.671875 12.859375 48.328125 
Q 20.21875 56 33.015625 56 
Q 37.15625 56 41.109375 55.140625 
Q 45.0625 54.296875 48.78125 52.59375 
z
" id="DejaVuSans-63"/>
     <path d="M 2.984375 54.6875 
L 12.5 54.6875 
L 29.59375 8.796875 
L 46.6875 54.6875 
L 56.203125 54.6875 
L 35.6875 0 
L 23.484375 0 
z
" id="DejaVuSans-76"/>
    </defs>
    <g transform="translate(264.29875 63.12)scale(0.14 -0.14)">
     <use xlink:href="#DejaVuSans-44"/>
     <use x="77.001953" xlink:href="#DejaVuSans-52"/>
     <use x="146.484375" xlink:href="#DejaVuSans-47"/>
     <use x="223.974609" xlink:href="#DejaVuSans-20"/>
     <use x="255.761719" xlink:href="#DejaVuSans-66"/>
     <use x="290.966797" xlink:href="#DejaVuSans-69"/>
     <use x="318.75" xlink:href="#DejaVuSans-6c"/>
     <use x="346.533203" xlink:href="#DejaVuSans-65"/>
     <use x="408.056641" xlink:href="#DejaVuSans-73"/>
     <use x="460.15625" xlink:href="#DejaVuSans-2f"/>
     <use x="493.847656" xlink:href="#DejaVuSans-4c"/>
     <use x="549.544922" xlink:href="#DejaVuSans-6f"/>
     <use x="610.726562" xlink:href="#DejaVuSans-6e"/>
     <use x="674.105469" xlink:href="#DejaVuSans-67"/>
     <use x="737.582031" xlink:href="#DejaVuSans-69"/>
     <use x="765.365234" xlink:href="#DejaVuSans-74"/>
     <use x="804.574219" xlink:href="#DejaVuSans-75"/>
     <use x="867.953125" xlink:href="#DejaVuSans-64"/>
     <use x="931.429688" xlink:href="#DejaVuSans-69"/>
     <use x="959.212891" xlink:href="#DejaVuSans-6e"/>
     <use x="1022.591797" xlink:href="#DejaVuSans-61"/>
     <use x="1083.871094" xlink:href="#DejaVuSans-6c"/>
     <use x="1111.654297" xlink:href="#DejaVuSans-20"/>
     <use x="1143.441406" xlink:href="#DejaVuSans-52"/>
     <use x="1212.892578" xlink:href="#DejaVuSans-61"/>
     <use x="1274.171875" xlink:href="#DejaVuSans-6e"/>
     <use x="1337.550781" xlink:href="#DejaVuSans-6b"/>
     <use x="1395.460938" xlink:href="#DejaVuSans-69"/>
     <use x="1423.244141" xlink:href="#DejaVuSans-6e"/>
     <use x="1486.623047" xlink:href="#DejaVuSans-67"/>
     <use x="1550.099609" xlink:href="#DejaVuSans-73"/>
     <use x="1602.199219" xlink:href="#DejaVuSans-20"/>
     <use x="1633.986328" xlink:href="#DejaVuSans-38"/>
     <use x="1697.609375" xlink:href="#DejaVuSans-37"/>
     <use x="1761.232422" xlink:href="#DejaVuSans-32"/>
     <use x="1824.855469" xlink:href="#DejaVuSans-2e"/>
     <use x="1856.642578" xlink:href="#DejaVuSans-63"/>
     <use x="1911.623047" xlink:href="#DejaVuSans-73"/>
     <use x="1963.722656" xlink:href="#DejaVuSans-76"/>
    </g>
   </g>
   <g id="legend_1">
    <g id="patch_7">
     <path d="M 106 223.90125 
L 351.451563 223.90125 
Q 353.451563 223.90125 353.451563 221.90125 
L 353.451563 76.12 
Q 353.451563 74.12 351.451563 74.12 
L 106 74.12 
Q 104 74.12 104 76.12 
L 104 221.90125 
Q 104 223.90125 106 223.90125 
z
" style="fill:#ffffff;opacity:0.8;stroke:#cccccc;stroke-linejoin:miter;"/>
    </g>
    <g id="line2d_26">
     <path d="M 108 82.218438 
L 128 82.218438 
" style="fill:none;stroke:#e50000;stroke-linecap:square;stroke-width:1.5;"/>
    </g>
    <g id="line2d_27"/>
    <g id="text_19">
     <!-- OROVILLE HOSPITAL -->
     <defs>
      <path d="M 39.40625 66.21875 
Q 28.65625 66.21875 22.328125 58.203125 
Q 16.015625 50.203125 16.015625 36.375 
Q 16.015625 22.609375 22.328125 14.59375 
Q 28.65625 6.59375 39.40625 6.59375 
Q 50.140625 6.59375 56.421875 14.59375 
Q 62.703125 22.609375 62.703125 36.375 
Q 62.703125 50.203125 56.421875 58.203125 
Q 50.140625 66.21875 39.40625 66.21875 
z
M 39.40625 74.21875 
Q 54.734375 74.21875 63.90625 63.9375 
Q 73.09375 53.65625 73.09375 36.375 
Q 73.09375 19.140625 63.90625 8.859375 
Q 54.734375 -1.421875 39.40625 -1.421875 
Q 24.03125 -1.421875 14.8125 8.828125 
Q 5.609375 19.09375 5.609375 36.375 
Q 5.609375 53.65625 14.8125 63.9375 
Q 24.03125 74.21875 39.40625 74.21875 
z
" id="DejaVuSans-4f"/>
      <path d="M 28.609375 0 
L 0.78125 72.90625 
L 11.078125 72.90625 
L 34.1875 11.53125 
L 57.328125 72.90625 
L 67.578125 72.90625 
L 39.796875 0 
z
" id="DejaVuSans-56"/>
      <path d="M 9.8125 72.90625 
L 19.671875 72.90625 
L 19.671875 0 
L 9.8125 0 
z
" id="DejaVuSans-49"/>
      <path d="M 9.8125 72.90625 
L 55.90625 72.90625 
L 55.90625 64.59375 
L 19.671875 64.59375 
L 19.671875 43.015625 
L 54.390625 43.015625 
L 54.390625 34.71875 
L 19.671875 34.71875 
L 19.671875 8.296875 
L 56.78125 8.296875 
L 56.78125 0 
L 9.8125 0 
z
" id="DejaVuSans-45"/>
      <path d="M 9.8125 72.90625 
L 19.671875 72.90625 
L 19.671875 43.015625 
L 55.515625 43.015625 
L 55.515625 72.90625 
L 65.375 72.90625 
L 65.375 0 
L 55.515625 0 
L 55.515625 34.71875 
L 19.671875 34.71875 
L 19.671875 0 
L 9.8125 0 
z
" id="DejaVuSans-48"/>
      <path d="M 53.515625 70.515625 
L 53.515625 60.890625 
Q 47.90625 63.578125 42.921875 64.890625 
Q 37.9375 66.21875 33.296875 66.21875 
Q 25.25 66.21875 20.875 63.09375 
Q 16.5 59.96875 16.5 54.203125 
Q 16.5 49.359375 19.40625 46.890625 
Q 22.3125 44.4375 30.421875 42.921875 
L 36.375 41.703125 
Q 47.40625 39.59375 52.65625 34.296875 
Q 57.90625 29 57.90625 20.125 
Q 57.90625 9.515625 50.796875 4.046875 
Q 43.703125 -1.421875 29.984375 -1.421875 
Q 24.8125 -1.421875 18.96875 -0.25 
Q 13.140625 0.921875 6.890625 3.21875 
L 6.890625 13.375 
Q 12.890625 10.015625 18.65625 8.296875 
Q 24.421875 6.59375 29.984375 6.59375 
Q 38.421875 6.59375 43.015625 9.90625 
Q 47.609375 13.234375 47.609375 19.390625 
Q 47.609375 24.75 44.3125 27.78125 
Q 41.015625 30.8125 33.5 32.328125 
L 27.484375 33.5 
Q 16.453125 35.6875 11.515625 40.375 
Q 6.59375 45.0625 6.59375 53.421875 
Q 6.59375 63.09375 13.40625 68.65625 
Q 20.21875 74.21875 32.171875 74.21875 
Q 37.3125 74.21875 42.625 73.28125 
Q 47.953125 72.359375 53.515625 70.515625 
z
" id="DejaVuSans-53"/>
      <path d="M 19.671875 64.796875 
L 19.671875 37.40625 
L 32.078125 37.40625 
Q 38.96875 37.40625 42.71875 40.96875 
Q 46.484375 44.53125 46.484375 51.125 
Q 46.484375 57.671875 42.71875 61.234375 
Q 38.96875 64.796875 32.078125 64.796875 
z
M 9.8125 72.90625 
L 32.078125 72.90625 
Q 44.34375 72.90625 50.609375 67.359375 
Q 56.890625 61.8125 56.890625 51.125 
Q 56.890625 40.328125 50.609375 34.8125 
Q 44.34375 29.296875 32.078125 29.296875 
L 19.671875 29.296875 
L 19.671875 0 
L 9.8125 0 
z
" id="DejaVuSans-50"/>
      <path d="M -0.296875 72.90625 
L 61.375 72.90625 
L 61.375 64.59375 
L 35.5 64.59375 
L 35.5 0 
L 25.59375 0 
L 25.59375 64.59375 
L -0.296875 64.59375 
z
" id="DejaVuSans-54"/>
      <path d="M 34.1875 63.1875 
L 20.796875 26.90625 
L 47.609375 26.90625 
z
M 28.609375 72.90625 
L 39.796875 72.90625 
L 67.578125 0 
L 57.328125 0 
L 50.6875 18.703125 
L 17.828125 18.703125 
L 11.1875 0 
L 0.78125 0 
z
" id="DejaVuSans-41"/>
     </defs>
     <g transform="translate(136 85.718438)scale(0.1 -0.1)">
      <use xlink:href="#DejaVuSans-4f"/>
      <use x="78.710938" xlink:href="#DejaVuSans-52"/>
      <use x="148.193359" xlink:href="#DejaVuSans-4f"/>
      <use x="226.888672" xlink:href="#DejaVuSans-56"/>
      <use x="295.296875" xlink:href="#DejaVuSans-49"/>
      <use x="324.789062" xlink:href="#DejaVuSans-4c"/>
      <use x="380.501953" xlink:href="#DejaVuSans-4c"/>
      <use x="436.214844" xlink:href="#DejaVuSans-45"/>
      <use x="499.398438" xlink:href="#DejaVuSans-20"/>
      <use x="531.185547" xlink:href="#DejaVuSans-48"/>
      <use x="606.380859" xlink:href="#DejaVuSans-4f"/>
      <use x="685.091797" xlink:href="#DejaVuSans-53"/>
      <use x="748.568359" xlink:href="#DejaVuSans-50"/>
      <use x="808.871094" xlink:href="#DejaVuSans-49"/>
      <use x="838.363281" xlink:href="#DejaVuSans-54"/>
      <use x="899.337891" xlink:href="#DejaVuSans-41"/>
      <use x="967.746094" xlink:href="#DejaVuSans-4c"/>
     </g>
    </g>
    <g id="line2d_28">
     <path d="M 108 96.896563 
L 128 96.896563 
" style="fill:none;stroke:#75bbfd;stroke-linecap:square;stroke-width:1.5;"/>
    </g>
    <g id="line2d_29"/>
    <g id="text_20">
     <!-- YALE-NEW HAVEN HOSPITAL -->
     <defs>
      <path d="M -0.203125 72.90625 
L 10.40625 72.90625 
L 30.609375 42.921875 
L 50.6875 72.90625 
L 61.28125 72.90625 
L 35.5 34.71875 
L 35.5 0 
L 25.59375 0 
L 25.59375 34.71875 
z
" id="DejaVuSans-59"/>
      <path d="M 4.890625 31.390625 
L 31.203125 31.390625 
L 31.203125 23.390625 
L 4.890625 23.390625 
z
" id="DejaVuSans-2d"/>
      <path d="M 9.8125 72.90625 
L 23.09375 72.90625 
L 55.421875 11.921875 
L 55.421875 72.90625 
L 64.984375 72.90625 
L 64.984375 0 
L 51.703125 0 
L 19.390625 60.984375 
L 19.390625 0 
L 9.8125 0 
z
" id="DejaVuSans-4e"/>
      <path d="M 3.328125 72.90625 
L 13.28125 72.90625 
L 28.609375 11.28125 
L 43.890625 72.90625 
L 54.984375 72.90625 
L 70.3125 11.28125 
L 85.59375 72.90625 
L 95.609375 72.90625 
L 77.296875 0 
L 64.890625 0 
L 49.515625 63.28125 
L 33.984375 0 
L 21.578125 0 
z
" id="DejaVuSans-57"/>
     </defs>
     <g transform="translate(136 100.396563)scale(0.1 -0.1)">
      <use xlink:href="#DejaVuSans-59"/>
      <use x="60.974609" xlink:href="#DejaVuSans-41"/>
      <use x="129.382812" xlink:href="#DejaVuSans-4c"/>
      <use x="185.095703" xlink:href="#DejaVuSans-45"/>
      <use x="248.279297" xlink:href="#DejaVuSans-2d"/>
      <use x="284.363281" xlink:href="#DejaVuSans-4e"/>
      <use x="359.167969" xlink:href="#DejaVuSans-45"/>
      <use x="422.351562" xlink:href="#DejaVuSans-57"/>
      <use x="521.228516" xlink:href="#DejaVuSans-20"/>
      <use x="553.015625" xlink:href="#DejaVuSans-48"/>
      <use x="628.210938" xlink:href="#DejaVuSans-41"/>
      <use x="696.525391" xlink:href="#DejaVuSans-56"/>
      <use x="764.933594" xlink:href="#DejaVuSans-45"/>
      <use x="828.117188" xlink:href="#DejaVuSans-4e"/>
      <use x="902.921875" xlink:href="#DejaVuSans-20"/>
      <use x="934.708984" xlink:href="#DejaVuSans-48"/>
      <use x="1009.904297" xlink:href="#DejaVuSans-4f"/>
      <use x="1088.615234" xlink:href="#DejaVuSans-53"/>
      <use x="1152.091797" xlink:href="#DejaVuSans-50"/>
      <use x="1212.394531" xlink:href="#DejaVuSans-49"/>
      <use x="1241.886719" xlink:href="#DejaVuSans-54"/>
      <use x="1302.861328" xlink:href="#DejaVuSans-41"/>
      <use x="1371.269531" xlink:href="#DejaVuSans-4c"/>
     </g>
    </g>
    <g id="line2d_30">
     <path d="M 108 111.574688 
L 128 111.574688 
" style="fill:none;stroke:#7e1e9c;stroke-linecap:square;stroke-width:1.5;"/>
    </g>
    <g id="line2d_31"/>
    <g id="text_21">
     <!-- FLORIDA HOSPITAL -->
     <defs>
      <path d="M 9.8125 72.90625 
L 51.703125 72.90625 
L 51.703125 64.59375 
L 19.671875 64.59375 
L 19.671875 43.109375 
L 48.578125 43.109375 
L 48.578125 34.8125 
L 19.671875 34.8125 
L 19.671875 0 
L 9.8125 0 
z
" id="DejaVuSans-46"/>
     </defs>
     <g transform="translate(136 115.074688)scale(0.1 -0.1)">
      <use xlink:href="#DejaVuSans-46"/>
      <use x="57.519531" xlink:href="#DejaVuSans-4c"/>
      <use x="113.185547" xlink:href="#DejaVuSans-4f"/>
      <use x="191.896484" xlink:href="#DejaVuSans-52"/>
      <use x="261.378906" xlink:href="#DejaVuSans-49"/>
      <use x="290.871094" xlink:href="#DejaVuSans-44"/>
      <use x="367.857422" xlink:href="#DejaVuSans-41"/>
      <use x="436.265625" xlink:href="#DejaVuSans-20"/>
      <use x="468.052734" xlink:href="#DejaVuSans-48"/>
      <use x="543.248047" xlink:href="#DejaVuSans-4f"/>
      <use x="621.958984" xlink:href="#DejaVuSans-53"/>
      <use x="685.435547" xlink:href="#DejaVuSans-50"/>
      <use x="745.738281" xlink:href="#DejaVuSans-49"/>
      <use x="775.230469" xlink:href="#DejaVuSans-54"/>
      <use x="836.205078" xlink:href="#DejaVuSans-41"/>
      <use x="904.613281" xlink:href="#DejaVuSans-4c"/>
     </g>
    </g>
    <g id="line2d_32">
     <path d="M 108 126.252813 
L 128 126.252813 
" style="fill:none;stroke:#15b01a;stroke-linecap:square;stroke-width:1.5;"/>
    </g>
    <g id="line2d_33"/>
    <g id="text_22">
     <!-- CHRISTIANA CARE HEALTH SERVICES, INC. -->
     <defs>
      <path d="M 64.40625 67.28125 
L 64.40625 56.890625 
Q 59.421875 61.53125 53.78125 63.8125 
Q 48.140625 66.109375 41.796875 66.109375 
Q 29.296875 66.109375 22.65625 58.46875 
Q 16.015625 50.828125 16.015625 36.375 
Q 16.015625 21.96875 22.65625 14.328125 
Q 29.296875 6.6875 41.796875 6.6875 
Q 48.140625 6.6875 53.78125 8.984375 
Q 59.421875 11.28125 64.40625 15.921875 
L 64.40625 5.609375 
Q 59.234375 2.09375 53.4375 0.328125 
Q 47.65625 -1.421875 41.21875 -1.421875 
Q 24.65625 -1.421875 15.125 8.703125 
Q 5.609375 18.84375 5.609375 36.375 
Q 5.609375 53.953125 15.125 64.078125 
Q 24.65625 74.21875 41.21875 74.21875 
Q 47.75 74.21875 53.53125 72.484375 
Q 59.328125 70.75 64.40625 67.28125 
z
" id="DejaVuSans-43"/>
      <path d="M 11.71875 12.40625 
L 22.015625 12.40625 
L 22.015625 4 
L 14.015625 -11.625 
L 7.71875 -11.625 
L 11.71875 4 
z
" id="DejaVuSans-2c"/>
     </defs>
     <g transform="translate(136 129.752813)scale(0.1 -0.1)">
      <use xlink:href="#DejaVuSans-43"/>
      <use x="69.824219" xlink:href="#DejaVuSans-48"/>
      <use x="145.019531" xlink:href="#DejaVuSans-52"/>
      <use x="214.501953" xlink:href="#DejaVuSans-49"/>
      <use x="243.994141" xlink:href="#DejaVuSans-53"/>
      <use x="307.470703" xlink:href="#DejaVuSans-54"/>
      <use x="368.554688" xlink:href="#DejaVuSans-49"/>
      <use x="398.046875" xlink:href="#DejaVuSans-41"/>
      <use x="466.455078" xlink:href="#DejaVuSans-4e"/>
      <use x="541.259766" xlink:href="#DejaVuSans-41"/>
      <use x="609.667969" xlink:href="#DejaVuSans-20"/>
      <use x="641.455078" xlink:href="#DejaVuSans-43"/>
      <use x="711.279297" xlink:href="#DejaVuSans-41"/>
      <use x="779.6875" xlink:href="#DejaVuSans-52"/>
      <use x="849.169922" xlink:href="#DejaVuSans-45"/>
      <use x="912.353516" xlink:href="#DejaVuSans-20"/>
      <use x="944.140625" xlink:href="#DejaVuSans-48"/>
      <use x="1019.335938" xlink:href="#DejaVuSans-45"/>
      <use x="1082.519531" xlink:href="#DejaVuSans-41"/>
      <use x="1150.927734" xlink:href="#DejaVuSans-4c"/>
      <use x="1206.4375" xlink:href="#DejaVuSans-54"/>
      <use x="1267.521484" xlink:href="#DejaVuSans-48"/>
      <use x="1342.716797" xlink:href="#DejaVuSans-20"/>
      <use x="1374.503906" xlink:href="#DejaVuSans-53"/>
      <use x="1437.980469" xlink:href="#DejaVuSans-45"/>
      <use x="1501.164062" xlink:href="#DejaVuSans-52"/>
      <use x="1570.568359" xlink:href="#DejaVuSans-56"/>
      <use x="1638.976562" xlink:href="#DejaVuSans-49"/>
      <use x="1668.46875" xlink:href="#DejaVuSans-43"/>
      <use x="1738.292969" xlink:href="#DejaVuSans-45"/>
      <use x="1801.476562" xlink:href="#DejaVuSans-53"/>
      <use x="1864.953125" xlink:href="#DejaVuSans-2c"/>
      <use x="1896.740234" xlink:href="#DejaVuSans-20"/>
      <use x="1928.527344" xlink:href="#DejaVuSans-49"/>
      <use x="1958.019531" xlink:href="#DejaVuSans-4e"/>
      <use x="2032.824219" xlink:href="#DejaVuSans-43"/>
      <use x="2102.648438" xlink:href="#DejaVuSans-2e"/>
     </g>
    </g>
    <g id="line2d_34">
     <path d="M 108 140.930938 
L 128 140.930938 
" style="fill:none;stroke:#0343df;stroke-linecap:square;stroke-width:1.5;"/>
    </g>
    <g id="line2d_35"/>
    <g id="text_23">
     <!-- READING HOSPITAL MEDICAL CENTER -->
     <defs>
      <path d="M 9.8125 72.90625 
L 24.515625 72.90625 
L 43.109375 23.296875 
L 61.8125 72.90625 
L 76.515625 72.90625 
L 76.515625 0 
L 66.890625 0 
L 66.890625 64.015625 
L 48.09375 14.015625 
L 38.1875 14.015625 
L 19.390625 64.015625 
L 19.390625 0 
L 9.8125 0 
z
" id="DejaVuSans-4d"/>
     </defs>
     <g transform="translate(136 144.430938)scale(0.1 -0.1)">
      <use xlink:href="#DejaVuSans-52"/>
      <use x="69.482422" xlink:href="#DejaVuSans-45"/>
      <use x="132.666016" xlink:href="#DejaVuSans-41"/>
      <use x="201.074219" xlink:href="#DejaVuSans-44"/>
      <use x="278.076172" xlink:href="#DejaVuSans-49"/>
      <use x="307.568359" xlink:href="#DejaVuSans-4e"/>
      <use x="382.373047" xlink:href="#DejaVuSans-47"/>
      <use x="459.863281" xlink:href="#DejaVuSans-20"/>
      <use x="491.650391" xlink:href="#DejaVuSans-48"/>
      <use x="566.845703" xlink:href="#DejaVuSans-4f"/>
      <use x="645.556641" xlink:href="#DejaVuSans-53"/>
      <use x="709.033203" xlink:href="#DejaVuSans-50"/>
      <use x="769.335938" xlink:href="#DejaVuSans-49"/>
      <use x="798.828125" xlink:href="#DejaVuSans-54"/>
      <use x="859.802734" xlink:href="#DejaVuSans-41"/>
      <use x="928.210938" xlink:href="#DejaVuSans-4c"/>
      <use x="983.923828" xlink:href="#DejaVuSans-20"/>
      <use x="1015.710938" xlink:href="#DejaVuSans-4d"/>
      <use x="1101.990234" xlink:href="#DejaVuSans-45"/>
      <use x="1165.173828" xlink:href="#DejaVuSans-44"/>
      <use x="1242.175781" xlink:href="#DejaVuSans-49"/>
      <use x="1271.667969" xlink:href="#DejaVuSans-43"/>
      <use x="1341.492188" xlink:href="#DejaVuSans-41"/>
      <use x="1409.900391" xlink:href="#DejaVuSans-4c"/>
      <use x="1465.613281" xlink:href="#DejaVuSans-20"/>
      <use x="1497.400391" xlink:href="#DejaVuSans-43"/>
      <use x="1567.224609" xlink:href="#DejaVuSans-45"/>
      <use x="1630.408203" xlink:href="#DejaVuSans-4e"/>
      <use x="1705.212891" xlink:href="#DejaVuSans-54"/>
      <use x="1766.296875" xlink:href="#DejaVuSans-45"/>
      <use x="1829.480469" xlink:href="#DejaVuSans-52"/>
     </g>
    </g>
    <g id="line2d_36">
     <path d="M 108 155.609063 
L 128 155.609063 
" style="fill:none;stroke:#ff81c0;stroke-linecap:square;stroke-width:1.5;"/>
    </g>
    <g id="line2d_37"/>
    <g id="text_24">
     <!-- HOLY CROSS HOSPITAL -->
     <g transform="translate(136 159.109063)scale(0.1 -0.1)">
      <use xlink:href="#DejaVuSans-48"/>
      <use x="75.195312" xlink:href="#DejaVuSans-4f"/>
      <use x="153.90625" xlink:href="#DejaVuSans-4c"/>
      <use x="209.416016" xlink:href="#DejaVuSans-59"/>
      <use x="270.5" xlink:href="#DejaVuSans-20"/>
      <use x="302.287109" xlink:href="#DejaVuSans-43"/>
      <use x="372.111328" xlink:href="#DejaVuSans-52"/>
      <use x="441.59375" xlink:href="#DejaVuSans-4f"/>
      <use x="520.304688" xlink:href="#DejaVuSans-53"/>
      <use x="583.78125" xlink:href="#DejaVuSans-53"/>
      <use x="647.257812" xlink:href="#DejaVuSans-20"/>
      <use x="679.044922" xlink:href="#DejaVuSans-48"/>
      <use x="754.240234" xlink:href="#DejaVuSans-4f"/>
      <use x="832.951172" xlink:href="#DejaVuSans-53"/>
      <use x="896.427734" xlink:href="#DejaVuSans-50"/>
      <use x="956.730469" xlink:href="#DejaVuSans-49"/>
      <use x="986.222656" xlink:href="#DejaVuSans-54"/>
      <use x="1047.197266" xlink:href="#DejaVuSans-41"/>
      <use x="1115.605469" xlink:href="#DejaVuSans-4c"/>
     </g>
    </g>
    <g id="line2d_38">
     <path d="M 108 170.287188 
L 128 170.287188 
" style="fill:none;stroke:#653700;stroke-linecap:square;stroke-width:1.5;"/>
    </g>
    <g id="line2d_39"/>
    <g id="text_25">
     <!-- SOUTHCOAST HOSPITAL GROUP, INC -->
     <defs>
      <path d="M 8.6875 72.90625 
L 18.609375 72.90625 
L 18.609375 28.609375 
Q 18.609375 16.890625 22.84375 11.734375 
Q 27.09375 6.59375 36.625 6.59375 
Q 46.09375 6.59375 50.34375 11.734375 
Q 54.59375 16.890625 54.59375 28.609375 
L 54.59375 72.90625 
L 64.5 72.90625 
L 64.5 27.390625 
Q 64.5 13.140625 57.4375 5.859375 
Q 50.390625 -1.421875 36.625 -1.421875 
Q 22.796875 -1.421875 15.734375 5.859375 
Q 8.6875 13.140625 8.6875 27.390625 
z
" id="DejaVuSans-55"/>
     </defs>
     <g transform="translate(136 173.787188)scale(0.1 -0.1)">
      <use xlink:href="#DejaVuSans-53"/>
      <use x="63.476562" xlink:href="#DejaVuSans-4f"/>
      <use x="142.1875" xlink:href="#DejaVuSans-55"/>
      <use x="215.380859" xlink:href="#DejaVuSans-54"/>
      <use x="276.464844" xlink:href="#DejaVuSans-48"/>
      <use x="351.660156" xlink:href="#DejaVuSans-43"/>
      <use x="421.484375" xlink:href="#DejaVuSans-4f"/>
      <use x="500.179688" xlink:href="#DejaVuSans-41"/>
      <use x="568.587891" xlink:href="#DejaVuSans-53"/>
      <use x="632.064453" xlink:href="#DejaVuSans-54"/>
      <use x="693.148438" xlink:href="#DejaVuSans-20"/>
      <use x="724.935547" xlink:href="#DejaVuSans-48"/>
      <use x="800.130859" xlink:href="#DejaVuSans-4f"/>
      <use x="878.841797" xlink:href="#DejaVuSans-53"/>
      <use x="942.318359" xlink:href="#DejaVuSans-50"/>
      <use x="1002.621094" xlink:href="#DejaVuSans-49"/>
      <use x="1032.113281" xlink:href="#DejaVuSans-54"/>
      <use x="1093.087891" xlink:href="#DejaVuSans-41"/>
      <use x="1161.496094" xlink:href="#DejaVuSans-4c"/>
      <use x="1217.208984" xlink:href="#DejaVuSans-20"/>
      <use x="1248.996094" xlink:href="#DejaVuSans-47"/>
      <use x="1326.486328" xlink:href="#DejaVuSans-52"/>
      <use x="1395.96875" xlink:href="#DejaVuSans-4f"/>
      <use x="1474.679688" xlink:href="#DejaVuSans-55"/>
      <use x="1547.873047" xlink:href="#DejaVuSans-50"/>
      <use x="1608.175781" xlink:href="#DejaVuSans-2c"/>
      <use x="1639.962891" xlink:href="#DejaVuSans-20"/>
      <use x="1671.75" xlink:href="#DejaVuSans-49"/>
      <use x="1701.242188" xlink:href="#DejaVuSans-4e"/>
      <use x="1776.046875" xlink:href="#DejaVuSans-43"/>
     </g>
    </g>
    <g id="line2d_40">
     <path d="M 108 184.965313 
L 128 184.965313 
" style="fill:none;stroke:#75bbfd;stroke-linecap:square;stroke-width:1.5;"/>
    </g>
    <g id="line2d_41"/>
    <g id="text_26">
     <!-- NORTH SHORE UNIVERSITY HOSPITAL -->
     <g transform="translate(136 188.465313)scale(0.1 -0.1)">
      <use xlink:href="#DejaVuSans-4e"/>
      <use x="74.804688" xlink:href="#DejaVuSans-4f"/>
      <use x="153.515625" xlink:href="#DejaVuSans-52"/>
      <use x="222.888672" xlink:href="#DejaVuSans-54"/>
      <use x="283.972656" xlink:href="#DejaVuSans-48"/>
      <use x="359.167969" xlink:href="#DejaVuSans-20"/>
      <use x="390.955078" xlink:href="#DejaVuSans-53"/>
      <use x="454.431641" xlink:href="#DejaVuSans-48"/>
      <use x="529.626953" xlink:href="#DejaVuSans-4f"/>
      <use x="608.337891" xlink:href="#DejaVuSans-52"/>
      <use x="677.820312" xlink:href="#DejaVuSans-45"/>
      <use x="741.003906" xlink:href="#DejaVuSans-20"/>
      <use x="772.791016" xlink:href="#DejaVuSans-55"/>
      <use x="845.984375" xlink:href="#DejaVuSans-4e"/>
      <use x="920.789062" xlink:href="#DejaVuSans-49"/>
      <use x="950.28125" xlink:href="#DejaVuSans-56"/>
      <use x="1018.689453" xlink:href="#DejaVuSans-45"/>
      <use x="1081.873047" xlink:href="#DejaVuSans-52"/>
      <use x="1151.355469" xlink:href="#DejaVuSans-53"/>
      <use x="1214.832031" xlink:href="#DejaVuSans-49"/>
      <use x="1244.324219" xlink:href="#DejaVuSans-54"/>
      <use x="1305.408203" xlink:href="#DejaVuSans-59"/>
      <use x="1366.492188" xlink:href="#DejaVuSans-20"/>
      <use x="1398.279297" xlink:href="#DejaVuSans-48"/>
      <use x="1473.474609" xlink:href="#DejaVuSans-4f"/>
      <use x="1552.185547" xlink:href="#DejaVuSans-53"/>
      <use x="1615.662109" xlink:href="#DejaVuSans-50"/>
      <use x="1675.964844" xlink:href="#DejaVuSans-49"/>
      <use x="1705.457031" xlink:href="#DejaVuSans-54"/>
      <use x="1766.431641" xlink:href="#DejaVuSans-41"/>
      <use x="1834.839844" xlink:href="#DejaVuSans-4c"/>
     </g>
    </g>
    <g id="line2d_42">
     <path d="M 108 199.643438 
L 128 199.643438 
" style="fill:none;stroke:#029386;stroke-linecap:square;stroke-width:1.5;"/>
    </g>
    <g id="line2d_43"/>
    <g id="text_27">
     <!-- YORK HOSPITAL -->
     <defs>
      <path d="M 9.8125 72.90625 
L 19.671875 72.90625 
L 19.671875 42.09375 
L 52.390625 72.90625 
L 65.09375 72.90625 
L 28.90625 38.921875 
L 67.671875 0 
L 54.6875 0 
L 19.671875 35.109375 
L 19.671875 0 
L 9.8125 0 
z
" id="DejaVuSans-4b"/>
     </defs>
     <g transform="translate(136 203.143438)scale(0.1 -0.1)">
      <use xlink:href="#DejaVuSans-59"/>
      <use x="61.005859" xlink:href="#DejaVuSans-4f"/>
      <use x="139.716797" xlink:href="#DejaVuSans-52"/>
      <use x="209.199219" xlink:href="#DejaVuSans-4b"/>
      <use x="274.775391" xlink:href="#DejaVuSans-20"/>
      <use x="306.5625" xlink:href="#DejaVuSans-48"/>
      <use x="381.757812" xlink:href="#DejaVuSans-4f"/>
      <use x="460.46875" xlink:href="#DejaVuSans-53"/>
      <use x="523.945312" xlink:href="#DejaVuSans-50"/>
      <use x="584.248047" xlink:href="#DejaVuSans-49"/>
      <use x="613.740234" xlink:href="#DejaVuSans-54"/>
      <use x="674.714844" xlink:href="#DejaVuSans-41"/>
      <use x="743.123047" xlink:href="#DejaVuSans-4c"/>
     </g>
    </g>
    <g id="line2d_44">
     <path d="M 108 214.321563 
L 128 214.321563 
" style="fill:none;stroke:#f97306;stroke-linecap:square;stroke-width:1.5;"/>
    </g>
    <g id="line2d_45"/>
    <g id="text_28">
     <!-- CEDARS-SINAI MEDICAL CENTER -->
     <g transform="translate(136 217.821563)scale(0.1 -0.1)">
      <use xlink:href="#DejaVuSans-43"/>
      <use x="69.824219" xlink:href="#DejaVuSans-45"/>
      <use x="133.007812" xlink:href="#DejaVuSans-44"/>
      <use x="209.994141" xlink:href="#DejaVuSans-41"/>
      <use x="278.402344" xlink:href="#DejaVuSans-52"/>
      <use x="347.884766" xlink:href="#DejaVuSans-53"/>
      <use x="411.361328" xlink:href="#DejaVuSans-2d"/>
      <use x="447.445312" xlink:href="#DejaVuSans-53"/>
      <use x="510.921875" xlink:href="#DejaVuSans-49"/>
      <use x="540.414062" xlink:href="#DejaVuSans-4e"/>
      <use x="615.21875" xlink:href="#DejaVuSans-41"/>
      <use x="683.626953" xlink:href="#DejaVuSans-49"/>
      <use x="713.119141" xlink:href="#DejaVuSans-20"/>
      <use x="744.90625" xlink:href="#DejaVuSans-4d"/>
      <use x="831.185547" xlink:href="#DejaVuSans-45"/>
      <use x="894.369141" xlink:href="#DejaVuSans-44"/>
      <use x="971.371094" xlink:href="#DejaVuSans-49"/>
      <use x="1000.863281" xlink:href="#DejaVuSans-43"/>
      <use x="1070.6875" xlink:href="#DejaVuSans-41"/>
      <use x="1139.095703" xlink:href="#DejaVuSans-4c"/>
      <use x="1194.808594" xlink:href="#DejaVuSans-20"/>
      <use x="1226.595703" xlink:href="#DejaVuSans-43"/>
      <use x="1296.419922" xlink:href="#DejaVuSans-45"/>
      <use x="1359.603516" xlink:href="#DejaVuSans-4e"/>
      <use x="1434.408203" xlink:href="#DejaVuSans-54"/>
      <use x="1495.492188" xlink:href="#DejaVuSans-45"/>
      <use x="1558.675781" xlink:href="#DejaVuSans-52"/>
     </g>
    </g>
   </g>
  </g>
  <g id="text_29">
   <!-- 872 - SEPTICEMIA OR SEVERE SEPSIS W/O MV 96+ HOURS W/O MCC -->
   <defs>
    <path d="M 10.984375 1.515625 
L 10.984375 10.5 
Q 14.703125 8.734375 18.5 7.8125 
Q 22.3125 6.890625 25.984375 6.890625 
Q 35.75 6.890625 40.890625 13.453125 
Q 46.046875 20.015625 46.78125 33.40625 
Q 43.953125 29.203125 39.59375 26.953125 
Q 35.25 24.703125 29.984375 24.703125 
Q 19.046875 24.703125 12.671875 31.3125 
Q 6.296875 37.9375 6.296875 49.421875 
Q 6.296875 60.640625 12.9375 67.421875 
Q 19.578125 74.21875 30.609375 74.21875 
Q 43.265625 74.21875 49.921875 64.515625 
Q 56.59375 54.828125 56.59375 36.375 
Q 56.59375 19.140625 48.40625 8.859375 
Q 40.234375 -1.421875 26.421875 -1.421875 
Q 22.703125 -1.421875 18.890625 -0.6875 
Q 15.09375 0.046875 10.984375 1.515625 
z
M 30.609375 32.421875 
Q 37.25 32.421875 41.125 36.953125 
Q 45.015625 41.5 45.015625 49.421875 
Q 45.015625 57.28125 41.125 61.84375 
Q 37.25 66.40625 30.609375 66.40625 
Q 23.96875 66.40625 20.09375 61.84375 
Q 16.21875 57.28125 16.21875 49.421875 
Q 16.21875 41.5 20.09375 36.953125 
Q 23.96875 32.421875 30.609375 32.421875 
z
" id="DejaVuSans-39"/>
    <path d="M 46 62.703125 
L 46 35.5 
L 73.1875 35.5 
L 73.1875 27.203125 
L 46 27.203125 
L 46 0 
L 37.796875 0 
L 37.796875 27.203125 
L 10.59375 27.203125 
L 10.59375 35.5 
L 37.796875 35.5 
L 37.796875 62.703125 
z
" id="DejaVuSans-2b"/>
   </defs>
   <g transform="translate(87.463125 25.197187)scale(0.18 -0.18)">
    <use xlink:href="#DejaVuSans-38"/>
    <use x="63.623047" xlink:href="#DejaVuSans-37"/>
    <use x="127.246094" xlink:href="#DejaVuSans-32"/>
    <use x="190.869141" xlink:href="#DejaVuSans-20"/>
    <use x="222.65625" xlink:href="#DejaVuSans-2d"/>
    <use x="258.740234" xlink:href="#DejaVuSans-20"/>
    <use x="290.527344" xlink:href="#DejaVuSans-53"/>
    <use x="354.003906" xlink:href="#DejaVuSans-45"/>
    <use x="417.1875" xlink:href="#DejaVuSans-50"/>
    <use x="477.490234" xlink:href="#DejaVuSans-54"/>
    <use x="538.574219" xlink:href="#DejaVuSans-49"/>
    <use x="568.066406" xlink:href="#DejaVuSans-43"/>
    <use x="637.890625" xlink:href="#DejaVuSans-45"/>
    <use x="701.074219" xlink:href="#DejaVuSans-4d"/>
    <use x="787.353516" xlink:href="#DejaVuSans-49"/>
    <use x="816.845703" xlink:href="#DejaVuSans-41"/>
    <use x="885.253906" xlink:href="#DejaVuSans-20"/>
    <use x="917.041016" xlink:href="#DejaVuSans-4f"/>
    <use x="995.751953" xlink:href="#DejaVuSans-52"/>
    <use x="1065.234375" xlink:href="#DejaVuSans-20"/>
    <use x="1097.021484" xlink:href="#DejaVuSans-53"/>
    <use x="1160.498047" xlink:href="#DejaVuSans-45"/>
    <use x="1223.681641" xlink:href="#DejaVuSans-56"/>
    <use x="1292.089844" xlink:href="#DejaVuSans-45"/>
    <use x="1355.273438" xlink:href="#DejaVuSans-52"/>
    <use x="1424.755859" xlink:href="#DejaVuSans-45"/>
    <use x="1487.939453" xlink:href="#DejaVuSans-20"/>
    <use x="1519.726562" xlink:href="#DejaVuSans-53"/>
    <use x="1583.203125" xlink:href="#DejaVuSans-45"/>
    <use x="1646.386719" xlink:href="#DejaVuSans-50"/>
    <use x="1706.689453" xlink:href="#DejaVuSans-53"/>
    <use x="1770.166016" xlink:href="#DejaVuSans-49"/>
    <use x="1799.658203" xlink:href="#DejaVuSans-53"/>
    <use x="1863.134766" xlink:href="#DejaVuSans-20"/>
    <use x="1894.921875" xlink:href="#DejaVuSans-57"/>
    <use x="1993.798828" xlink:href="#DejaVuSans-2f"/>
    <use x="2027.490234" xlink:href="#DejaVuSans-4f"/>
    <use x="2106.201172" xlink:href="#DejaVuSans-20"/>
    <use x="2137.988281" xlink:href="#DejaVuSans-4d"/>
    <use x="2224.267578" xlink:href="#DejaVuSans-56"/>
    <use x="2292.675781" xlink:href="#DejaVuSans-20"/>
    <use x="2324.462891" xlink:href="#DejaVuSans-39"/>
    <use x="2388.085938" xlink:href="#DejaVuSans-36"/>
    <use x="2451.708984" xlink:href="#DejaVuSans-2b"/>
    <use x="2535.498047" xlink:href="#DejaVuSans-20"/>
    <use x="2567.285156" xlink:href="#DejaVuSans-48"/>
    <use x="2642.480469" xlink:href="#DejaVuSans-4f"/>
    <use x="2721.191406" xlink:href="#DejaVuSans-55"/>
    <use x="2794.384766" xlink:href="#DejaVuSans-52"/>
    <use x="2863.867188" xlink:href="#DejaVuSans-53"/>
    <use x="2927.34375" xlink:href="#DejaVuSans-20"/>
    <use x="2959.130859" xlink:href="#DejaVuSans-57"/>
    <use x="3058.007812" xlink:href="#DejaVuSans-2f"/>
    <use x="3091.699219" xlink:href="#DejaVuSans-4f"/>
    <use x="3170.410156" xlink:href="#DejaVuSans-20"/>
    <use x="3202.197266" xlink:href="#DejaVuSans-4d"/>
    <use x="3288.476562" xlink:href="#DejaVuSans-43"/>
    <use x="3358.300781" xlink:href="#DejaVuSans-43"/>
   </g>
   <!-- 2011-2015 -->
   <g transform="translate(346.942969 45.35325)scale(0.18 -0.18)">
    <use xlink:href="#DejaVuSans-32"/>
    <use x="63.623047" xlink:href="#DejaVuSans-30"/>
    <use x="127.246094" xlink:href="#DejaVuSans-31"/>
    <use x="190.869141" xlink:href="#DejaVuSans-31"/>
    <use x="254.492188" xlink:href="#DejaVuSans-2d"/>
    <use x="290.576172" xlink:href="#DejaVuSans-32"/>
    <use x="354.199219" xlink:href="#DejaVuSans-30"/>
    <use x="417.822266" xlink:href="#DejaVuSans-31"/>
    <use x="481.445312" xlink:href="#DejaVuSans-35"/>
   </g>
  </g>
 </g>
 <defs>
  <clipPath id="pc9752dd7fa">
   <rect height="434.88" width="613.8" x="99" y="69.12"/>
  </clipPath>
 </defs>
</svg>
