<svg class="marks" width="826" height="475" viewBox="0 0 826 475" version="1.1" xmlns="http://www.w3.org/2000/svg" xmlns:xlink="http://www.w3.org/1999/xlink"><rect width="826" height="475" style="fill: #FFFFFF;"></rect><g transform="translate(54,50)"><g class="mark-group role-frame root"><g transform="translate(0,0)"><path class="background" d="M0.5,0.5h685v380h-685Z" style="fill: none; stroke: none;"></path><g><g class="mark-group role-axis"><g transform="translate(0.5,0.5)"><path class="background" d="M0,0h0v0h0Z" style="pointer-events: none; fill: none;"></path><g><g class="mark-rule role-axis-grid" style="pointer-events: none;"><line transform="translate(0,380)" x2="685" y2="0" style="fill: none; stroke: #DEDDDD; stroke-width: 1; opacity: 1;"></line><line transform="translate(0,333)" x2="685" y2="0" style="fill: none; stroke: #DEDDDD; stroke-width: 1; opacity: 1;"></line><line transform="translate(0,285)" x2="685" y2="0" style="fill: none; stroke: #DEDDDD; stroke-width: 1; opacity: 1;"></line><line transform="translate(0,238)" x2="685" y2="0" style="fill: none; stroke: #DEDDDD; stroke-width: 1; opacity: 1;"></line><line transform="translate(0,190)" x2="685" y2="0" style="fill: none; stroke: #DEDDDD; stroke-width: 1; opacity: 1;"></line><line transform="translate(0,143)" x2="685" y2="0" style="fill: none; stroke: #DEDDDD; stroke-width: 1; opacity: 1;"></line><line transform="translate(0,95)" x2="685" y2="0" style="fill: none; stroke: #DEDDDD; stroke-width: 1; opacity: 1;"></line><line transform="translate(0,48)" x2="685" y2="0" style="fill: none; stroke: #DEDDDD; stroke-width: 1; opacity: 1;"></line><line transform="translate(0,0)" x2="685" y2="0" style="fill: none; stroke: #DEDDDD; stroke-width: 1; opacity: 1;"></line></g></g><path class="foreground" d="" style="pointer-events: none; display: none; fill: none;"></path></g></g><g class="mark-group role-axis"><g transform="translate(0.5,380.5)"><path class="background" d="M0,0h0v0h0Z" style="pointer-events: none; fill: none;"></path><g><g class="mark-rule role-axis-tick" style="pointer-events: none;"><line transform="translate(48,0)" x2="0" y2="5" style="fill: none; stroke: #000000; stroke-width: 1; opacity: 1;"></line><line transform="translate(146,0)" x2="0" y2="5" style="fill: none; stroke: #000000; stroke-width: 1; opacity: 1;"></line><line transform="translate(244,0)" x2="0" y2="5" style="fill: none; stroke: #000000; stroke-width: 1; opacity: 1;"></line><line transform="translate(342,0)" x2="0" y2="5" style="fill: none; stroke: #000000; stroke-width: 1; opacity: 1;"></line><line transform="translate(440,0)" x2="0" y2="5" style="fill: none; stroke: #000000; stroke-width: 1; opacity: 1;"></line><line transform="translate(538,0)" x2="0" y2="5" style="fill: none; stroke: #000000; stroke-width: 1; opacity: 1;"></line><line transform="translate(636,0)" x2="0" y2="5" style="fill: none; stroke: #000000; stroke-width: 1; opacity: 1;"></line></g><g class="mark-text role-axis-label" style="pointer-events: none;"><text text-anchor="middle" transform="translate(48.4285714285714,16)" style="font-family: Lato; font-size: 12px; fill: #000; opacity: 1;">2011</text><text text-anchor="middle" transform="translate(146.28571428571428,16)" style="font-family: Lato; font-size: 12px; fill: #000; opacity: 1;">2012</text><text text-anchor="middle" transform="translate(244.1428571428571,16)" style="font-family: Lato; font-size: 12px; fill: #000; opacity: 1;">2013</text><text text-anchor="middle" transform="translate(341.99999999999994,16)" style="font-family: Lato; font-size: 12px; fill: #000; opacity: 1;">2014</text><text text-anchor="middle" transform="translate(439.85714285714283,16)" style="font-family: Lato; font-size: 12px; fill: #000; opacity: 1;">2015</text><text text-anchor="middle" transform="translate(537.7142857142858,16)" style="font-family: Lato; font-size: 12px; fill: #000; opacity: 1;">2016</text><text text-anchor="middle" transform="translate(635.5714285714286,16)" style="font-family: Lato; font-size: 12px; fill: #000; opacity: 1;">2017</text></g><g class="mark-rule role-axis-domain" style="pointer-events: none;"><line transform="translate(0,0)" x2="685" y2="0" style="fill: none; stroke: #000000; stroke-width: 1; opacity: 1;"></line></g><g class="mark-text role-axis-title" style="pointer-events: none;"><text text-anchor="middle" transform="translate(342.5,37)" style="font-family: Lato; font-size: 12px; font-weight: bold; fill: #000; opacity: 1;">DRG</text></g></g><path class="foreground" d="" style="pointer-events: none; display: none; fill: none;"></path></g></g><g class="mark-group role-axis"><g transform="translate(0.5,0.5)"><path class="background" d="M0,0h0v0h0Z" style="pointer-events: none; fill: none;"></path><g><g class="mark-text role-axis-label" style="pointer-events: none;"><text text-anchor="end" transform="translate(-8,384)" style="font-family: Lato; font-size: 12px; fill: #000; opacity: 1;">0</text><text text-anchor="end" transform="translate(-8,336.5)" style="font-family: Lato; font-size: 12px; fill: #000; opacity: 1;">100</text><text text-anchor="end" transform="translate(-8,289)" style="font-family: Lato; font-size: 12px; fill: #000; opacity: 1;">200</text><text text-anchor="end" transform="translate(-8,241.5)" style="font-family: Lato; font-size: 12px; fill: #000; opacity: 1;">300</text><text text-anchor="end" transform="translate(-8,194)" style="font-family: Lato; font-size: 12px; fill: #000; opacity: 1;">400</text><text text-anchor="end" transform="translate(-8,146.5)" style="font-family: Lato; font-size: 12px; fill: #000; opacity: 1;">500</text><text text-anchor="end" transform="translate(-8,99)" style="font-family: Lato; font-size: 12px; fill: #000; opacity: 1;">600</text><text text-anchor="end" transform="translate(-8,51.5)" style="font-family: Lato; font-size: 12px; fill: #000; opacity: 1;">700</text><text text-anchor="end" transform="translate(-8,4)" style="font-family: Lato; font-size: 12px; fill: #000; opacity: 1;">800</text></g><g class="mark-text role-axis-title" style="pointer-events: none;"><text text-anchor="middle" transform="translate(18,-13)" style="font-family: Lato; font-size: 12px; font-weight: bold; fill: #000; opacity: 1;">Discharges (in '000s')</text></g></g><path class="foreground" d="" style="pointer-events: none; display: none; fill: none;"></path></g></g><g class="mark-rect role-mark marks"><path d="M28.928571428571402,164.33195h40v10.746399999999994h-40Z" style="fill: black; stroke: false; opacity: 0.7;"></path><path d="M28.928571428571402,175.07835h40v151.53497500000003h-40Z" style="fill: blue; stroke: false; opacity: 0.7;"></path><path d="M28.928571428571402,326.61332500000003h40v53.38667499999997h-40Z" style="fill: red; stroke: false; opacity: 0.7;"></path><path d="M126.78571428571428,147.94920000000002h40v11.334450000000004h-40Z" style="fill: black; stroke: false; opacity: 0.7;"></path><path d="M126.78571428571428,159.28365000000002h40v164.01939999999996h-40Z" style="fill: blue; stroke: false; opacity: 0.7;"></path><path d="M126.78571428571428,323.30305h40v56.696950000000015h-40Z" style="fill: red; stroke: false; opacity: 0.7;"></path><path d="M224.6428571428571,119.68527500000003h40v12.822624999999974h-40Z" style="fill: black; stroke: false; opacity: 0.7;"></path><path d="M224.6428571428571,132.5079h40v188.305675h-40Z" style="fill: blue; stroke: false; opacity: 0.7;"></path><path d="M224.6428571428571,320.813575h40v59.186424999999986h-40Z" style="fill: red; stroke: false; opacity: 0.7;"></path><path d="M322.49999999999994,94.22480000000003h40v13.423499999999976h-40Z" style="fill: black; stroke: false; opacity: 0.7;"></path><path d="M322.49999999999994,107.6483h40v208.3141h-40Z" style="fill: blue; stroke: false; opacity: 0.7;"></path><path d="M322.49999999999994,315.9624h40v64.0376h-40Z" style="fill: red; stroke: false; opacity: 0.7;"></path><path d="M420.35714285714283,46.6887h40v14.435250000000025h-40Z" style="fill: black; stroke: false; opacity: 0.7;"></path><path d="M420.35714285714283,61.12395000000002h40v247.57047499999993h-40Z" style="fill: blue; stroke: false; opacity: 0.7;"></path><path d="M420.35714285714283,308.69442499999997h40v71.30557500000003h-40Z" style="fill: red; stroke: false; opacity: 0.7;"></path><path d="M518.2142857142858,40.53365000000001h40v11.941025000000032h-40Z" style="fill: black; stroke: false; opacity: 0.7;"></path><path d="M518.2142857142858,52.47467500000004h40v255.75662499999993h-40Z" style="fill: blue; stroke: false; opacity: 0.7;"></path><path d="M518.2142857142858,308.2313h40v71.76870000000002h-40Z" style="fill: red; stroke: false; opacity: 0.7;"></path><path d="M616.0714285714286,8.278775000000003h40v12.817400000000013h-40Z" style="fill: black; stroke: false; opacity: 0.7;"></path><path d="M616.0714285714286,21.096175000000017h40v283.9246h-40Z" style="fill: blue; stroke: false; opacity: 0.7;"></path><path d="M616.0714285714286,305.020775h40v74.97922499999999h-40Z" style="fill: red; stroke: false; opacity: 0.7;"></path></g><g class="mark-group role-legend"><g transform="translate(685,0)"><path class="background" d="M0,0h82v62h-82Z" style="pointer-events: none; fill: none;"></path><g><g class="mark-group role-legend-entry"><g transform="translate(0,22)"><path class="background" d="M0,0h0v0h0Z" style="pointer-events: none; fill: none;"></path><g><g class="mark-group role-scope"><g transform="translate(0,0)"><path class="background" d="M0,0h36.880001068115234v12h-36.880001068115234Z" style="pointer-events: none; fill: none; opacity: 1;"></path><g><g class="mark-symbol role-legend-symbol" style="pointer-events: none;"><path transform="translate(6,6)" d="M-5,-5h10v10h-10Z" style="fill: black; stroke: false; stroke-width: 1.5; opacity: 0.7;"></path></g><g class="mark-text role-legend-label" style="pointer-events: none;"><text text-anchor="start" transform="translate(16,10)" style="font-family: Lato; font-size: 12px; fill: #000; opacity: 1;">870</text></g></g><path class="foreground" d="" style="pointer-events: none; display: none; fill: none;"></path></g><g transform="translate(0,14)"><path class="background" d="M0,0h36.880001068115234v12h-36.880001068115234Z" style="pointer-events: none; fill: none; opacity: 1;"></path><g><g class="mark-symbol role-legend-symbol" style="pointer-events: none;"><path transform="translate(6,6)" d="M-5,-5h10v10h-10Z" style="fill: blue; stroke: false; stroke-width: 1.5; opacity: 0.7;"></path></g><g class="mark-text role-legend-label" style="pointer-events: none;"><text text-anchor="start" transform="translate(16,10)" style="font-family: Lato; font-size: 12px; fill: #000; opacity: 1;">871</text></g></g><path class="foreground" d="" style="pointer-events: none; display: none; fill: none;"></path></g><g transform="translate(0,28)"><path class="background" d="M0,0h36.880001068115234v12h-36.880001068115234Z" style="pointer-events: none; fill: none; opacity: 1;"></path><g><g class="mark-symbol role-legend-symbol" style="pointer-events: none;"><path transform="translate(6,6)" d="M-5,-5h10v10h-10Z" style="fill: red; stroke: false; stroke-width: 1.5; opacity: 0.7;"></path></g><g class="mark-text role-legend-label" style="pointer-events: none;"><text text-anchor="start" transform="translate(16,10)" style="font-family: Lato; font-size: 12px; fill: #000; opacity: 1;">872</text></g></g><path class="foreground" d="" style="pointer-events: none; display: none; fill: none;"></path></g></g></g><path class="foreground" d="" style="pointer-events: none; display: none; fill: none;"></path></g></g><g class="mark-text role-legend-title" style="pointer-events: none;"><text text-anchor="start" transform="translate(0,9)" style="font-family: Lato; font-size: 12px; font-weight: bold; fill: #000; opacity: 1;">Color Legend</text></g></g><path class="foreground" d="" style="pointer-events: none; display: none; fill: none;"></path></g></g><g class="mark-group role-title"><g transform="translate(-48.66199493408203,-45)"><path class="background" d="M0,0h0v0h0Z" style="pointer-events: none; fill: none;"></path><g><g class="mark-text role-title-text" style="pointer-events: none;"><text text-anchor="start" transform="translate(0,14)" style="font-family: Lato; font-size: 18px; font-weight: bold; fill: #000; opacity: 1;">Sepsis DRGs (870, 871,872)</text></g></g><path class="foreground" d="" style="pointer-events: none; display: none; fill: none;"></path></g></g></g><path class="foreground" d="" style="display: none; fill: none;"></path></g></g></g></svg>